solid 
facet normal -0.7390084704556413 -0.6736961337241097 -0.0
outer loop
vertex 145.95025634765625 145.66714477539062 0.800000011920929
vertex 144.8719482421875 146.84999084472656 0.800000011920929
vertex 144.8719482421875 146.84999084472656 0.4000000059604645
endloop
endfacet
facet normal -0.5793443693522213 -0.36766492168504933 -0.7274493845362737
outer loop
vertex 144.806396484375 147.59390258789062 0.0
vertex 143.94717407226562 148.15638732910156 0.4000000059604645
vertex 143.9585418701172 148.92990112304688 0.0
endloop
endfacet
facet normal 0.0 0.0 -1.0
outer loop
vertex 145.81500244140625 146.3747100830078 0.0
vertex 144.806396484375 147.59390258789062 0.0
vertex 143.9585418701172 148.92990112304688 0.0
endloop
endfacet
facet normal -0.5944761689359609 -0.42081880366441843 -0.6852077196366592
outer loop
vertex 144.8719482421875 146.84999084472656 0.4000000059604645
vertex 143.94717407226562 148.15638732910156 0.4000000059604645
vertex 144.806396484375 147.59390258789062 0.0
endloop
endfacet
facet normal -0.5289530736587673 -0.4375889934900004 -0.7271344570595942
outer loop
vertex 145.81500244140625 146.3747100830078 0.0
vertex 144.8719482421875 146.84999084472656 0.4000000059604645
vertex 144.806396484375 147.59390258789062 0.0
endloop
endfacet
facet normal -0.8161983129409348 -0.5777718528557547 0.0
outer loop
vertex 144.8719482421875 146.84999084472656 0.800000011920929
vertex 143.94717407226562 148.15638732910156 0.4000000059604645
vertex 144.8719482421875 146.84999084472656 0.4000000059604645
endloop
endfacet
facet normal -0.8161983129409348 -0.5777718528557547 -0.0
outer loop
vertex 144.8719482421875 146.84999084472656 0.800000011920929
vertex 143.94717407226562 148.15638732910156 0.800000011920929
vertex 143.94717407226562 148.15638732910156 0.4000000059604645
endloop
endfacet
facet normal 0.0 0.0 1.0
outer loop
vertex 148.14198303222656 147.25341796875 0.800000011920929
vertex 143.18995666503906 149.56651306152344 0.800000011920929
vertex 143.94717407226562 148.15638732910156 0.800000011920929
endloop
endfacet
facet normal -0.4733366825807463 -0.5524862162102315 -0.6860840807227313
outer loop
vertex 147.16575622558594 144.6257781982422 0.4000000059604645
vertex 145.95025634765625 145.66714477539062 0.4000000059604645
vertex 146.9684600830078 145.29153442382812 0.0
endloop
endfacet
facet normal -0.6506147106001406 -0.759407992024508 0.0
outer loop
vertex 147.16575622558594 144.6257781982422 0.800000011920929
vertex 145.95025634765625 145.66714477539062 0.4000000059604645
vertex 147.16575622558594 144.6257781982422 0.4000000059604645
endloop
endfacet
facet normal -0.4040381269181912 -0.5561067481448777 -0.7262909036083055
outer loop
vertex 148.2485809326172 144.36146545410156 0.0
vertex 147.16575622558594 144.6257781982422 0.4000000059604645
vertex 146.9684600830078 145.29153442382812 0.0
endloop
endfacet
facet normal -0.4015744481904159 -0.606031503153521 -0.686632201215503
outer loop
vertex 148.5 143.74166870117188 0.4000000059604645
vertex 147.16575622558594 144.6257781982422 0.4000000059604645
vertex 148.2485809326172 144.36146545410156 0.0
endloop
endfacet
facet normal -0.5523682328155778 -0.8336002251536379 0.0
outer loop
vertex 148.5 143.74166870117188 0.800000011920929
vertex 147.16575622558594 144.6257781982422 0.4000000059604645
vertex 148.5 143.74166870117188 0.4000000059604645
endloop
endfacet
facet normal 0.0 0.0 -1.0
outer loop
vertex 149.6351776123047 143.59918212890625 0.0
vertex 143.9585418701172 148.92990112304688 0.0
vertex 151.10638427734375 143.01669311523438 0.0
endloop
endfacet
facet normal -0.5523682328155778 -0.8336002251536379 -0.0
outer loop
vertex 148.5 143.74166870117188 0.800000011920929
vertex 147.16575622558594 144.6257781982422 0.800000011920929
vertex 147.16575622558594 144.6257781982422 0.4000000059604645
endloop
endfacet
facet normal 0.0 0.0 1.0
outer loop
vertex 148.14198303222656 147.25341796875 0.800000011920929
vertex 147.16575622558594 144.6257781982422 0.800000011920929
vertex 148.5 143.74166870117188 0.800000011920929
endloop
endfacet
facet normal -0.7390084704556413 -0.6736961337241097 0.0
outer loop
vertex 145.95025634765625 145.66714477539062 0.800000011920929
vertex 144.8719482421875 146.84999084472656 0.4000000059604645
vertex 145.95025634765625 145.66714477539062 0.4000000059604645
endloop
endfacet
facet normal -0.5379716553656869 -0.49042661723425696 -0.6856152209011015
outer loop
vertex 145.95025634765625 145.66714477539062 0.4000000059604645
vertex 144.8719482421875 146.84999084472656 0.4000000059604645
vertex 145.81500244140625 146.3747100830078 0.0
endloop
endfacet
facet normal 0.0 0.0 -1.0
outer loop
vertex 148.2485809326172 144.36146545410156 0.0
vertex 145.81500244140625 146.3747100830078 0.0
vertex 143.9585418701172 148.92990112304688 0.0
endloop
endfacet
facet normal -0.4702190031800361 -0.5007292195386264 -0.7267491573772971
outer loop
vertex 146.9684600830078 145.29153442382812 0.0
vertex 145.95025634765625 145.66714477539062 0.4000000059604645
vertex 145.81500244140625 146.3747100830078 0.0
endloop
endfacet
facet normal -0.6506147106001406 -0.759407992024508 -0.0
outer loop
vertex 147.16575622558594 144.6257781982422 0.800000011920929
vertex 145.95025634765625 145.66714477539062 0.800000011920929
vertex 145.95025634765625 145.66714477539062 0.4000000059604645
endloop
endfacet
facet normal 0.0 0.0 1.0
outer loop
vertex 148.14198303222656 147.25341796875 0.800000011920929
vertex 144.8719482421875 146.84999084472656 0.800000011920929
vertex 145.95025634765625 145.66714477539062 0.800000011920929
endloop
endfacet
facet normal 0.0 0.0 -1.0
outer loop
vertex 151.10638427734375 143.01669311523438 0.0
vertex 143.9585418701172 148.92990112304688 0.0
vertex 142.7958526611328 151.86651611328125 0.0
endloop
endfacet
facet normal 0.0 0.0 1.0
outer loop
vertex 148.14198303222656 147.25341796875 0.800000011920929
vertex 143.94717407226562 148.15638732910156 0.800000011920929
vertex 144.8719482421875 146.84999084472656 0.800000011920929
endloop
endfacet
facet normal 0.0 0.0 -1.0
outer loop
vertex 146.9684600830078 145.29153442382812 0.0
vertex 145.81500244140625 146.3747100830078 0.0
vertex 148.2485809326172 144.36146545410156 0.0
endloop
endfacet
facet normal 0.0 0.0 -1.0
outer loop
vertex 148.2485809326172 144.36146545410156 0.0
vertex 143.9585418701172 148.92990112304688 0.0
vertex 149.6351776123047 143.59918212890625 0.0
endloop
endfacet
facet normal 0.0 0.0 1.0
outer loop
vertex 148.14198303222656 147.25341796875 0.800000011920929
vertex 145.95025634765625 145.66714477539062 0.800000011920929
vertex 147.16575622558594 144.6257781982422 0.800000011920929
endloop
endfacet
facet normal -0.8810132668892389 -0.47309155938903713 -0.0
outer loop
vertex 143.18995666503906 149.56651306152344 0.800000011920929
vertex 143.18995666503906 149.56651306152344 0.4000000059604645
vertex 143.94717407226562 148.15638732910156 0.4000000059604645
endloop
endfacet
facet normal -0.6206158991427129 -0.29203936688530535 -0.72770111578897
outer loop
vertex 143.9585418701172 148.92990112304688 0.0
vertex 143.18995666503906 149.56651306152344 0.4000000059604645
vertex 143.28482055664062 150.36163330078125 0.0
endloop
endfacet
facet normal -0.9324720947724379 -0.3612420137120013 0.0
outer loop
vertex 143.18995666503906 149.56651306152344 0.800000011920929
vertex 142.61175537109375 151.05902099609375 0.4000000059604645
vertex 143.18995666503906 149.56651306152344 0.4000000059604645
endloop
endfacet
facet normal -0.6796888361491564 -0.26331314925623367 -0.6846088455775091
outer loop
vertex 143.18995666503906 149.56651306152344 0.4000000059604645
vertex 142.61175537109375 151.05902099609375 0.4000000059604645
vertex 143.28482055664062 150.36163330078125 0.0
endloop
endfacet
facet normal 0.0 0.0 -1.0
outer loop
vertex 143.9585418701172 148.92990112304688 0.0
vertex 143.28482055664062 150.36163330078125 0.0
vertex 142.7958526611328 151.86651611328125 0.0
endloop
endfacet
facet normal -0.6521315602564038 -0.2118911811366043 -0.7278918569911901
outer loop
vertex 143.28482055664062 150.36163330078125 0.0
vertex 142.61175537109375 151.05902099609375 0.4000000059604645
vertex 142.7958526611328 151.86651611328125 0.0
endloop
endfacet
facet normal -0.9324720947724379 -0.3612420137120013 -0.0
outer loop
vertex 143.18995666503906 149.56651306152344 0.800000011920929
vertex 142.61175537109375 151.05902099609375 0.800000011920929
vertex 142.61175537109375 151.05902099609375 0.4000000059604645
endloop
endfacet
facet normal -0.9697960768683448 -0.24391713611545957 0.0
outer loop
vertex 142.61175537109375 151.05902099609375 0.800000011920929
vertex 142.22134399414062 152.61126708984375 0.800000011920929
vertex 142.61175537109375 151.05902099609375 0.4000000059604645
endloop
endfacet
facet normal -0.641964262932217 -0.3447256535591065 -0.6848694101039572
outer loop
vertex 143.94717407226562 148.15638732910156 0.4000000059604645
vertex 143.18995666503906 149.56651306152344 0.4000000059604645
vertex 143.9585418701172 148.92990112304688 0.0
endloop
endfacet
facet normal -0.8810132668892389 -0.47309155938903713 0.0
outer loop
vertex 143.94717407226562 148.15638732910156 0.800000011920929
vertex 143.18995666503906 149.56651306152344 0.800000011920929
vertex 143.94717407226562 148.15638732910156 0.4000000059604645
endloop
endfacet
facet normal -0.7070622962772624 -0.17783595384309173 -0.6844247823565732
outer loop
vertex 142.61175537109375 151.05902099609375 0.4000000059604645
vertex 142.22134399414062 152.61126708984375 0.4000000059604645
vertex 142.7958526611328 151.86651611328125 0.0
endloop
endfacet
facet normal -0.9697960768683448 -0.24391713611545957 -0.0
outer loop
vertex 142.22134399414062 152.61126708984375 0.800000011920929
vertex 142.22134399414062 152.61126708984375 0.4000000059604645
vertex 142.61175537109375 151.05902099609375 0.4000000059604645
endloop
endfacet
facet normal -0.6734085557884517 -0.12845812616604235 -0.7280243311956137
outer loop
vertex 142.7958526611328 151.86651611328125 0.0
vertex 142.22134399414062 152.61126708984375 0.4000000059604645
vertex 142.49935913085938 153.42080688476562 0.0
endloop
endfacet
facet normal -0.9924209439407475 -0.12288478354847489 0.0
outer loop
vertex 142.22134399414062 152.61126708984375 0.800000011920929
vertex 142.024658203125 154.19970703125 0.800000011920929
vertex 142.22134399414062 152.61126708984375 0.4000000059604645
endloop
endfacet
facet normal -0.7236575144883711 -0.08960562307161482 -0.6843176411860655
outer loop
vertex 142.22134399414062 152.61126708984375 0.4000000059604645
vertex 142.024658203125 154.19970703125 0.4000000059604645
vertex 142.49935913085938 153.42080688476562 0.0
endloop
endfacet
facet normal -0.9924209439407475 -0.12288478354847489 -0.0
outer loop
vertex 142.024658203125 154.19970703125 0.800000011920929
vertex 142.024658203125 154.19970703125 0.4000000059604645
vertex 142.22134399414062 152.61126708984375 0.4000000059604645
endloop
endfacet
facet normal -0.6841390417692584 -0.043047069781836735 -0.7280801613217041
outer loop
vertex 142.49935913085938 153.42080688476562 0.0
vertex 142.024658203125 154.19970703125 0.4000000059604645
vertex 142.39999389648438 155.0 0.0
endloop
endfacet
facet normal -1.0 0.0 -0.0
outer loop
vertex 142.024658203125 154.19970703125 0.800000011920929
vertex 142.024658203125 155.80029296875 0.800000011920929
vertex 142.024658203125 154.19970703125 0.4000000059604645
endloop
endfacet
facet normal 0.0 0.0 1.0
outer loop
vertex 146.3520050048828 155.10015869140625 0.800000011920929
vertex 142.024658203125 154.19970703125 0.800000011920929
vertex 142.22134399414062 152.61126708984375 0.800000011920929
endloop
endfacet
facet normal 0.0 0.0 1.0
outer loop
vertex 146.3520050048828 155.10015869140625 0.800000011920929
vertex 142.61175537109375 151.05902099609375 0.800000011920929
vertex 143.18995666503906 149.56651306152344 0.800000011920929
endloop
endfacet
facet normal 0.0 0.0 1.0
outer loop
vertex 146.3520050048828 155.10015869140625 0.800000011920929
vertex 142.22134399414062 152.61126708984375 0.800000011920929
vertex 142.61175537109375 151.05902099609375 0.800000011920929
endloop
endfacet
facet normal 0.0 0.0 -0.9999999999999999
outer loop
vertex 152.63900756835938 142.62318420410156 0.0
vertex 142.7958526611328 151.86651611328125 0.0
vertex 142.49935913085938 153.42080688476562 0.0
endloop
endfacet
facet normal 0.0 0.0 1.0
outer loop
vertex 146.3520050048828 155.10015869140625 0.800000011920929
vertex 143.18995666503906 149.56651306152344 0.800000011920929
vertex 148.14198303222656 147.25341796875 0.800000011920929
endloop
endfacet
facet normal 0.0 0.0 1.0
outer loop
vertex 149.8839874267578 155.10015869140625 0.800000011920929
vertex 146.3520050048828 155.10015869140625 0.800000011920929
vertex 148.14198303222656 147.25341796875 0.800000011920929
endloop
endfacet
facet normal -0.32378827398737214 -0.6502565475904751 -0.6872609227535017
outer loop
vertex 149.9327850341797 143.02822875976562 0.4000000059604645
vertex 148.5 143.74166870117188 0.4000000059604645
vertex 149.6351776123047 143.59918212890625 0.0
endloop
endfacet
facet normal -0.4457372376872929 -0.8951638480964821 0.0
outer loop
vertex 149.9327850341797 143.02822875976562 0.800000011920929
vertex 148.5 143.74166870117188 0.4000000059604645
vertex 149.9327850341797 143.02822875976562 0.4000000059604645
endloop
endfacet
facet normal -0.4457372376872929 -0.8951638480964821 -0.0
outer loop
vertex 149.9327850341797 143.02822875976562 0.800000011920929
vertex 148.5 143.74166870117188 0.800000011920929
vertex 148.5 143.74166870117188 0.4000000059604645
endloop
endfacet
facet normal -0.3314091957078171 -0.602834766546445 -0.7257810890641826
outer loop
vertex 149.6351776123047 143.59918212890625 0.0
vertex 148.5 143.74166870117188 0.4000000059604645
vertex 148.2485809326172 144.36146545410156 0.0
endloop
endfacet
facet normal 0.0 0.0 1.0
outer loop
vertex 151.6732635498047 147.25341796875 0.800000011920929
vertex 148.5 143.74166870117188 0.800000011920929
vertex 149.9327850341797 143.02822875976562 0.800000011920929
endloop
endfacet
facet normal -0.2534651828807648 -0.6401831754024913 -0.7252040423210583
outer loop
vertex 151.10638427734375 143.01669311523438 0.0
vertex 149.9327850341797 143.02822875976562 0.4000000059604645
vertex 149.6351776123047 143.59918212890625 0.0
endloop
endfacet
facet normal -0.2412043596272944 -0.6845009153521633 -0.6879527264128236
outer loop
vertex 151.4423828125 142.49627685546875 0.4000000059604645
vertex 149.9327850341797 143.02822875976562 0.4000000059604645
vertex 151.10638427734375 143.01669311523438 0.0
endloop
endfacet
facet normal -0.33234933738199657 -0.9431563592224504 -0.0
outer loop
vertex 149.9327850341797 143.02822875976562 0.800000011920929
vertex 149.9327850341797 143.02822875976562 0.4000000059604645
vertex 151.4423828125 142.49627685546875 0.4000000059604645
endloop
endfacet
facet normal -0.17140086896403833 -0.6675654767724976 -0.7245537083887438
outer loop
vertex 152.63900756835938 142.62318420410156 0.0
vertex 151.4423828125 142.49627685546875 0.4000000059604645
vertex 151.10638427734375 143.01669311523438 0.0
endloop
endfacet
facet normal -0.33234933738199657 -0.9431563592224504 0.0
outer loop
vertex 151.4423828125 142.49627685546875 0.800000011920929
vertex 149.9327850341797 143.02822875976562 0.800000011920929
vertex 151.4423828125 142.49627685546875 0.4000000059604645
endloop
endfacet
facet normal 0.0 0.0 1.0
outer loop
vertex 151.6732635498047 147.25341796875 0.800000011920929
vertex 149.9327850341797 143.02822875976562 0.800000011920929
vertex 151.4423828125 142.49627685546875 0.800000011920929
endloop
endfacet
facet normal 0.0 0.0 -1.0
outer loop
vertex 151.10638427734375 143.01669311523438 0.0
vertex 142.7958526611328 151.86651611328125 0.0
vertex 152.63900756835938 142.62318420410156 0.0
endloop
endfacet
facet normal 0.0 0.0 -0.9999999999999999
outer loop
vertex 152.63900756835938 142.62318420410156 0.0
vertex 142.49935913085938 153.42080688476562 0.0
vertex 154.20884704589844 142.42486572265625 0.0
endloop
endfacet
facet normal 0.0 0.0 1.0
outer loop
vertex 151.6732635498047 147.25341796875 0.800000011920929
vertex 148.14198303222656 147.25341796875 0.800000011920929
vertex 148.5 143.74166870117188 0.800000011920929
endloop
endfacet
facet normal -0.1551095102755783 -0.7082396590797059 -0.6887217327257305
outer loop
vertex 153.0059051513672 142.1538543701172 0.4000000059604645
vertex 151.4423828125 142.49627685546875 0.4000000059604645
vertex 152.63900756835938 142.62318420410156 0.0
endloop
endfacet
facet normal -0.21393654619818997 -0.9768475593462828 0.0
outer loop
vertex 153.0059051513672 142.1538543701172 0.800000011920929
vertex 151.4423828125 142.49627685546875 0.4000000059604645
vertex 153.0059051513672 142.1538543701172 0.4000000059604645
endloop
endfacet
facet normal -0.0864758291122946 -0.6845210259984597 -0.7238459062157895
outer loop
vertex 154.20884704589844 142.42486572265625 0.0
vertex 153.0059051513672 142.1538543701172 0.4000000059604645
vertex 152.63900756835938 142.62318420410156 0.0
endloop
endfacet
facet normal -0.21393654619818997 -0.9768475593462828 -0.0
outer loop
vertex 153.0059051513672 142.1538543701172 0.800000011920929
vertex 151.4423828125 142.49627685546875 0.800000011920929
vertex 151.4423828125 142.49627685546875 0.4000000059604645
endloop
endfacet
facet normal 0.0 0.0 1.0
outer loop
vertex 151.6732635498047 147.25341796875 0.800000011920929
vertex 151.4423828125 142.49627685546875 0.800000011920929
vertex 153.0059051513672 142.1538543701172 0.800000011920929
endloop
endfacet
facet normal -0.06682643139632184 -0.721137215258087 -0.689561704879733
outer loop
vertex 154.5996551513672 142.00616455078125 0.4000000059604645
vertex 153.0059051513672 142.1538543701172 0.4000000059604645
vertex 154.20884704589844 142.42486572265625 0.0
endloop
endfacet
facet normal -0.09227277812124199 -0.99573376683619 0.0
outer loop
vertex 154.5996551513672 142.00616455078125 0.800000011920929
vertex 153.0059051513672 142.1538543701172 0.4000000059604645
vertex 154.5996551513672 142.00616455078125 0.4000000059604645
endloop
endfacet
facet normal 0.0 -0.6907745158408899 -0.7230702374353297
outer loop
vertex 155.79115295410156 142.42486572265625 0.0
vertex 154.5996551513672 142.00616455078125 0.4000000059604645
vertex 154.20884704589844 142.42486572265625 0.0
endloop
endfacet
facet normal -0.09227277812124199 -0.99573376683619 -0.0
outer loop
vertex 154.5996551513672 142.00616455078125 0.800000011920929
vertex 153.0059051513672 142.1538543701172 0.800000011920929
vertex 153.0059051513672 142.1538543701172 0.4000000059604645
endloop
endfacet
facet normal 0.0 0.0 1.0
outer loop
vertex 155.09014892578125 147.25341796875 0.800000011920929
vertex 153.0059051513672 142.1538543701172 0.800000011920929
vertex 154.5996551513672 142.00616455078125 0.800000011920929
endloop
endfacet
facet normal 0.0 0.0 1.0
outer loop
vertex 155.09014892578125 147.25341796875 0.800000011920929
vertex 151.6732635498047 147.25341796875 0.800000011920929
vertex 153.0059051513672 142.1538543701172 0.800000011920929
endloop
endfacet
facet normal 0.0 -1.0 -0.0
outer loop
vertex 151.6732635498047 147.25341796875 8.399999618530273
vertex 148.14198303222656 147.25341796875 0.800000011920929
vertex 151.6732635498047 147.25341796875 0.800000011920929
endloop
endfacet
facet normal 0.0 0.0 -1.0
outer loop
vertex 154.20884704589844 142.42486572265625 0.0
vertex 142.49935913085938 153.42080688476562 0.0
vertex 167.60000610351562 155.0 0.0
endloop
endfacet
facet normal -0.8356135240190262 0.5493177937009727 0.0
outer loop
vertex 158.32691955566406 162.74658203125 0.800000011920929
vertex 148.14198303222656 147.25341796875 0.800000011920929
vertex 148.14198303222656 147.25341796875 8.399999618530273
endloop
endfacet
facet normal -0.0 -1.0 -0.0
outer loop
vertex 151.6732635498047 147.25341796875 8.399999618530273
vertex 148.14198303222656 147.25341796875 8.399999618530273
vertex 148.14198303222656 147.25341796875 0.800000011920929
endloop
endfacet
facet normal 0.0 -0.7070991948053651 0.7071143674863383
outer loop
vertex 148.14198303222656 147.25341796875 8.399999618530273
vertex 151.45753479003906 147.65342712402344 8.800000190734863
vertex 148.88363647460938 147.65342712402344 8.800000190734863
endloop
endfacet
facet normal 0.0 -0.7070991948053651 0.7071143674863383
outer loop
vertex 148.14198303222656 147.25341796875 8.399999618530273
vertex 151.6732635498047 147.25341796875 8.399999618530273
vertex 151.45753479003906 147.65342712402344 8.800000190734863
endloop
endfacet
facet normal -0.5908658927488513 0.3884253084154833 0.7071090980665147
outer loop
vertex 158.54266357421875 162.34657287597656 8.800000190734863
vertex 148.14198303222656 147.25341796875 8.399999618530273
vertex 148.88363647460938 147.65342712402344 8.800000190734863
endloop
endfacet
facet normal 0.0 -0.0 0.9999999999999999
outer loop
vertex 151.45753479003906 147.65342712402344 8.800000190734863
vertex 158.54266357421875 162.34657287597656 8.800000190734863
vertex 148.88363647460938 147.65342712402344 8.800000190734863
endloop
endfacet
facet normal 0.5908779925147285 -0.38842037647168076 0.7071016964364901
outer loop
vertex 151.6732635498047 147.25341796875 8.399999618530273
vertex 161.11624145507812 162.34657287597656 8.800000190734863
vertex 151.45753479003906 147.65342712402344 8.800000190734863
endloop
endfacet
facet normal -0.7292317748573933 0.0 -0.6842667743930989
outer loop
vertex 142.024658203125 154.19970703125 0.4000000059604645
vertex 142.024658203125 155.80029296875 0.4000000059604645
vertex 142.39999389648438 155.0 0.0
endloop
endfacet
facet normal -0.6841390417692584 0.043047069781836735 -0.7280801613217041
outer loop
vertex 142.39999389648438 155.0 0.0
vertex 142.024658203125 155.80029296875 0.4000000059604645
vertex 142.49935913085938 156.57919311523438 0.0
endloop
endfacet
facet normal 0.0 0.0 -0.9999999999999999
outer loop
vertex 142.49935913085938 153.42080688476562 0.0
vertex 142.39999389648438 155.0 0.0
vertex 142.7958526611328 158.13348388671875 0.0
endloop
endfacet
facet normal -1.0 -0.0 -0.0
outer loop
vertex 142.024658203125 155.80029296875 0.800000011920929
vertex 142.024658203125 155.80029296875 0.4000000059604645
vertex 142.024658203125 154.19970703125 0.4000000059604645
endloop
endfacet
facet normal -0.7236575144883711 0.08960562307161482 -0.6843176411860655
outer loop
vertex 142.024658203125 155.80029296875 0.4000000059604645
vertex 142.22134399414062 157.38873291015625 0.4000000059604645
vertex 142.49935913085938 156.57919311523438 0.0
endloop
endfacet
facet normal 0.0 0.0 -1.0
outer loop
vertex 142.39999389648438 155.0 0.0
vertex 142.49935913085938 156.57919311523438 0.0
vertex 142.7958526611328 158.13348388671875 0.0
endloop
endfacet
facet normal -0.9924209439407475 0.12288478354847489 0.0
outer loop
vertex 142.024658203125 155.80029296875 0.800000011920929
vertex 142.22134399414062 157.38873291015625 0.4000000059604645
vertex 142.024658203125 155.80029296875 0.4000000059604645
endloop
endfacet
facet normal 0.0 0.0 1.0
outer loop
vertex 146.3520050048828 155.10015869140625 0.800000011920929
vertex 142.024658203125 155.80029296875 0.800000011920929
vertex 142.024658203125 154.19970703125 0.800000011920929
endloop
endfacet
facet normal 0.0 0.0 1.0
outer loop
vertex 146.3520050048828 155.10015869140625 0.800000011920929
vertex 142.22134399414062 157.38873291015625 0.800000011920929
vertex 142.024658203125 155.80029296875 0.800000011920929
endloop
endfacet
facet normal -0.6734085557884517 0.12845812616604235 -0.7280243311956137
outer loop
vertex 142.49935913085938 156.57919311523438 0.0
vertex 142.22134399414062 157.38873291015625 0.4000000059604645
vertex 142.7958526611328 158.13348388671875 0.0
endloop
endfacet
facet normal -0.7070622962772624 0.17783595384309173 -0.6844247823565732
outer loop
vertex 142.22134399414062 157.38873291015625 0.4000000059604645
vertex 142.61175537109375 158.94097900390625 0.4000000059604645
vertex 142.7958526611328 158.13348388671875 0.0
endloop
endfacet
facet normal -0.9697960768683448 0.24391713611545957 0.0
outer loop
vertex 142.22134399414062 157.38873291015625 0.800000011920929
vertex 142.61175537109375 158.94097900390625 0.4000000059604645
vertex 142.22134399414062 157.38873291015625 0.4000000059604645
endloop
endfacet
facet normal -0.9924209439407475 0.12288478354847489 0.0
outer loop
vertex 142.024658203125 155.80029296875 0.800000011920929
vertex 142.22134399414062 157.38873291015625 0.800000011920929
vertex 142.22134399414062 157.38873291015625 0.4000000059604645
endloop
endfacet
facet normal 0.0 0.0 1.0
outer loop
vertex 142.61175537109375 158.94097900390625 0.800000011920929
vertex 142.22134399414062 157.38873291015625 0.800000011920929
vertex 146.3520050048828 155.10015869140625 0.800000011920929
endloop
endfacet
facet normal 0.0 0.0 1.0
outer loop
vertex 143.18995666503906 160.43348693847656 0.800000011920929
vertex 142.61175537109375 158.94097900390625 0.800000011920929
vertex 146.3520050048828 155.10015869140625 0.800000011920929
endloop
endfacet
facet normal -0.6521315602564038 0.2118911811366043 -0.7278918569911901
outer loop
vertex 142.7958526611328 158.13348388671875 0.0
vertex 142.61175537109375 158.94097900390625 0.4000000059604645
vertex 143.28482055664062 159.63836669921875 0.0
endloop
endfacet
facet normal -0.6796888361491564 0.26331314925623367 -0.6846088455775091
outer loop
vertex 142.61175537109375 158.94097900390625 0.4000000059604645
vertex 143.18995666503906 160.43348693847656 0.4000000059604645
vertex 143.28482055664062 159.63836669921875 0.0
endloop
endfacet
facet normal 0.0 0.0 -1.0
outer loop
vertex 142.7958526611328 158.13348388671875 0.0
vertex 143.28482055664062 159.63836669921875 0.0
vertex 143.9585418701172 161.07009887695312 0.0
endloop
endfacet
facet normal -0.9697960768683448 0.24391713611545957 0.0
outer loop
vertex 142.22134399414062 157.38873291015625 0.800000011920929
vertex 142.61175537109375 158.94097900390625 0.800000011920929
vertex 142.61175537109375 158.94097900390625 0.4000000059604645
endloop
endfacet
facet normal -0.9324720947724379 0.3612420137120013 0.0
outer loop
vertex 142.61175537109375 158.94097900390625 0.800000011920929
vertex 143.18995666503906 160.43348693847656 0.800000011920929
vertex 142.61175537109375 158.94097900390625 0.4000000059604645
endloop
endfacet
facet normal -0.6206158991427129 0.29203936688530535 -0.72770111578897
outer loop
vertex 143.28482055664062 159.63836669921875 0.0
vertex 143.18995666503906 160.43348693847656 0.4000000059604645
vertex 143.9585418701172 161.07009887695312 0.0
endloop
endfacet
facet normal -0.9324720947724379 0.3612420137120013 0.0
outer loop
vertex 143.18995666503906 160.43348693847656 0.800000011920929
vertex 143.18995666503906 160.43348693847656 0.4000000059604645
vertex 142.61175537109375 158.94097900390625 0.4000000059604645
endloop
endfacet
facet normal -0.8810132668892389 0.47309155938903713 0.0
outer loop
vertex 143.18995666503906 160.43348693847656 0.800000011920929
vertex 143.94717407226562 161.84361267089844 0.800000011920929
vertex 143.18995666503906 160.43348693847656 0.4000000059604645
endloop
endfacet
facet normal 0.0 0.0 1.0
outer loop
vertex 143.94717407226562 161.84361267089844 0.800000011920929
vertex 143.18995666503906 160.43348693847656 0.800000011920929
vertex 146.3520050048828 155.10015869140625 0.800000011920929
endloop
endfacet
facet normal -0.641964262932217 0.3447256535591065 -0.6848694101039572
outer loop
vertex 143.18995666503906 160.43348693847656 0.4000000059604645
vertex 143.94717407226562 161.84361267089844 0.4000000059604645
vertex 143.9585418701172 161.07009887695312 0.0
endloop
endfacet
facet normal -0.8810132668892389 0.47309155938903713 0.0
outer loop
vertex 143.94717407226562 161.84361267089844 0.800000011920929
vertex 143.94717407226562 161.84361267089844 0.4000000059604645
vertex 143.18995666503906 160.43348693847656 0.4000000059604645
endloop
endfacet
facet normal 0.0 0.0 1.0
outer loop
vertex 151.37840270996094 162.74658203125 0.800000011920929
vertex 143.94717407226562 161.84361267089844 0.800000011920929
vertex 146.3520050048828 155.10015869140625 0.800000011920929
endloop
endfacet
facet normal 0.0 -1.0 0.0
outer loop
vertex 146.3520050048828 155.10015869140625 8.399999618530273
vertex 146.3520050048828 155.10015869140625 0.800000011920929
vertex 149.8839874267578 155.10015869140625 0.800000011920929
endloop
endfacet
facet normal -0.8356249597309193 0.5493003974827428 0.0
outer loop
vertex 151.37840270996094 162.74658203125 0.800000011920929
vertex 146.3520050048828 155.10015869140625 0.800000011920929
vertex 146.3520050048828 155.10015869140625 8.399999618530273
endloop
endfacet
facet normal -0.5793443693522213 0.36766492168504933 -0.7274493845362737
outer loop
vertex 143.9585418701172 161.07009887695312 0.0
vertex 143.94717407226562 161.84361267089844 0.4000000059604645
vertex 144.806396484375 162.40609741210938 0.0
endloop
endfacet
facet normal -0.8161983129409348 0.5777718528557547 0.0
outer loop
vertex 143.94717407226562 161.84361267089844 0.800000011920929
vertex 144.8719482421875 163.15000915527344 0.4000000059604645
vertex 143.94717407226562 161.84361267089844 0.4000000059604645
endloop
endfacet
facet normal -0.5944761689359609 0.42081880366441843 -0.6852077196366592
outer loop
vertex 143.94717407226562 161.84361267089844 0.4000000059604645
vertex 144.8719482421875 163.15000915527344 0.4000000059604645
vertex 144.806396484375 162.40609741210938 0.0
endloop
endfacet
facet normal -0.5289530736587673 0.4375889934900004 -0.7271344570595942
outer loop
vertex 144.806396484375 162.40609741210938 0.0
vertex 144.8719482421875 163.15000915527344 0.4000000059604645
vertex 145.81500244140625 163.6252899169922 0.0
endloop
endfacet
facet normal -0.8161983129409348 0.5777718528557547 0.0
outer loop
vertex 143.94717407226562 161.84361267089844 0.800000011920929
vertex 144.8719482421875 163.15000915527344 0.800000011920929
vertex 144.8719482421875 163.15000915527344 0.4000000059604645
endloop
endfacet
facet normal -0.7390084704556413 0.6736961337241097 0.0
outer loop
vertex 144.8719482421875 163.15000915527344 0.800000011920929
vertex 145.95025634765625 164.33285522460938 0.800000011920929
vertex 144.8719482421875 163.15000915527344 0.4000000059604645
endloop
endfacet
facet normal 0.0 0.0 1.0
outer loop
vertex 151.37840270996094 162.74658203125 0.800000011920929
vertex 144.8719482421875 163.15000915527344 0.800000011920929
vertex 143.94717407226562 161.84361267089844 0.800000011920929
endloop
endfacet
facet normal -0.5379716553656869 0.49042661723425696 -0.6856152209011015
outer loop
vertex 144.8719482421875 163.15000915527344 0.4000000059604645
vertex 145.95025634765625 164.33285522460938 0.4000000059604645
vertex 145.81500244140625 163.6252899169922 0.0
endloop
endfacet
facet normal -0.7390084704556413 0.6736961337241097 0.0
outer loop
vertex 145.95025634765625 164.33285522460938 0.800000011920929
vertex 145.95025634765625 164.33285522460938 0.4000000059604645
vertex 144.8719482421875 163.15000915527344 0.4000000059604645
endloop
endfacet
facet normal 0.0 0.0 -1.0
outer loop
vertex 144.806396484375 162.40609741210938 0.0
vertex 145.81500244140625 163.6252899169922 0.0
vertex 148.2485809326172 165.63853454589844 0.0
endloop
endfacet
facet normal -0.4702190031800361 0.5007292195386264 -0.7267491573772971
outer loop
vertex 145.81500244140625 163.6252899169922 0.0
vertex 145.95025634765625 164.33285522460938 0.4000000059604645
vertex 146.9684600830078 164.70846557617188 0.0
endloop
endfacet
facet normal -0.6506147106001406 0.759407992024508 0.0
outer loop
vertex 145.95025634765625 164.33285522460938 0.800000011920929
vertex 147.16575622558594 165.3742218017578 0.4000000059604645
vertex 145.95025634765625 164.33285522460938 0.4000000059604645
endloop
endfacet
facet normal 0.0 0.0 -1.0
outer loop
vertex 145.81500244140625 163.6252899169922 0.0
vertex 146.9684600830078 164.70846557617188 0.0
vertex 148.2485809326172 165.63853454589844 0.0
endloop
endfacet
facet normal 0.0 0.0 1.0
outer loop
vertex 151.37840270996094 162.74658203125 0.800000011920929
vertex 145.95025634765625 164.33285522460938 0.800000011920929
vertex 144.8719482421875 163.15000915527344 0.800000011920929
endloop
endfacet
facet normal 0.0 0.0 1.0
outer loop
vertex 151.37840270996094 162.74658203125 0.800000011920929
vertex 147.16575622558594 165.3742218017578 0.800000011920929
vertex 145.95025634765625 164.33285522460938 0.800000011920929
endloop
endfacet
facet normal -0.4733366825807463 0.5524862162102315 -0.6860840807227313
outer loop
vertex 145.95025634765625 164.33285522460938 0.4000000059604645
vertex 147.16575622558594 165.3742218017578 0.4000000059604645
vertex 146.9684600830078 164.70846557617188 0.0
endloop
endfacet
facet normal -0.6506147106001406 0.759407992024508 0.0
outer loop
vertex 145.95025634765625 164.33285522460938 0.800000011920929
vertex 147.16575622558594 165.3742218017578 0.800000011920929
vertex 147.16575622558594 165.3742218017578 0.4000000059604645
endloop
endfacet
facet normal -0.4040381269181912 0.5561067481448777 -0.7262909036083055
outer loop
vertex 147.16575622558594 165.3742218017578 0.4000000059604645
vertex 148.2485809326172 165.63853454589844 0.0
vertex 146.9684600830078 164.70846557617188 0.0
endloop
endfacet
facet normal -0.5523682328155778 0.8336002251536379 0.0
outer loop
vertex 147.16575622558594 165.3742218017578 0.800000011920929
vertex 148.5 166.25833129882812 0.4000000059604645
vertex 147.16575622558594 165.3742218017578 0.4000000059604645
endloop
endfacet
facet normal -0.4015744481904159 0.606031503153521 -0.686632201215503
outer loop
vertex 147.16575622558594 165.3742218017578 0.4000000059604645
vertex 148.5 166.25833129882812 0.4000000059604645
vertex 148.2485809326172 165.63853454589844 0.0
endloop
endfacet
facet normal -0.5523682328155778 0.8336002251536379 0.0
outer loop
vertex 147.16575622558594 165.3742218017578 0.800000011920929
vertex 148.5 166.25833129882812 0.800000011920929
vertex 148.5 166.25833129882812 0.4000000059604645
endloop
endfacet
facet normal 0.0 0.0 -1.0
outer loop
vertex 142.49935913085938 153.42080688476562 0.0
vertex 142.7958526611328 158.13348388671875 0.0
vertex 166.71517944335938 159.63836669921875 0.0
endloop
endfacet
facet normal 0.0 0.0 -1.0
outer loop
vertex 142.7958526611328 158.13348388671875 0.0
vertex 143.9585418701172 161.07009887695312 0.0
vertex 166.71517944335938 159.63836669921875 0.0
endloop
endfacet
facet normal 0.0 -0.0 0.9999999999999999
outer loop
vertex 148.14198303222656 147.25341796875 0.800000011920929
vertex 158.32691955566406 162.74658203125 0.800000011920929
vertex 149.8839874267578 155.10015869140625 0.800000011920929
endloop
endfacet
facet normal 0.0 -0.0 1.0
outer loop
vertex 149.8839874267578 155.10015869140625 0.800000011920929
vertex 158.32691955566406 162.74658203125 0.800000011920929
vertex 154.9097137451172 162.74658203125 0.800000011920929
endloop
endfacet
facet normal 0.8356586375822993 -0.549249161523343 0.0
outer loop
vertex 154.9097137451172 162.74658203125 8.399999618530273
vertex 149.8839874267578 155.10015869140625 0.800000011920929
vertex 154.9097137451172 162.74658203125 0.800000011920929
endloop
endfacet
facet normal 0.0 0.0 -0.9999999999999999
outer loop
vertex 143.9585418701172 161.07009887695312 0.0
vertex 144.806396484375 162.40609741210938 0.0
vertex 164.18499755859375 163.6252899169922 0.0
endloop
endfacet
facet normal 0.0 0.0 -1.0
outer loop
vertex 144.806396484375 162.40609741210938 0.0
vertex 148.2485809326172 165.63853454589844 0.0
vertex 161.7514190673828 165.63853454589844 0.0
endloop
endfacet
facet normal -0.3314091957078171 0.602834766546445 -0.7257810890641826
outer loop
vertex 148.5 166.25833129882812 0.4000000059604645
vertex 149.6351776123047 166.40081787109375 0.0
vertex 148.2485809326172 165.63853454589844 0.0
endloop
endfacet
facet normal 0.0 0.0 1.0
outer loop
vertex 148.5 166.25833129882812 0.800000011920929
vertex 147.16575622558594 165.3742218017578 0.800000011920929
vertex 151.37840270996094 162.74658203125 0.800000011920929
endloop
endfacet
facet normal 0.0 0.0 1.0
outer loop
vertex 149.9327850341797 166.97177124023438 0.800000011920929
vertex 148.5 166.25833129882812 0.800000011920929
vertex 151.37840270996094 162.74658203125 0.800000011920929
endloop
endfacet
facet normal -0.4457372376872929 0.8951638480964821 0.0
outer loop
vertex 148.5 166.25833129882812 0.800000011920929
vertex 149.9327850341797 166.97177124023438 0.4000000059604645
vertex 148.5 166.25833129882812 0.4000000059604645
endloop
endfacet
facet normal -0.32378827398737214 0.6502565475904751 -0.6872609227535017
outer loop
vertex 148.5 166.25833129882812 0.4000000059604645
vertex 149.9327850341797 166.97177124023438 0.4000000059604645
vertex 149.6351776123047 166.40081787109375 0.0
endloop
endfacet
facet normal -0.4457372376872929 0.8951638480964821 0.0
outer loop
vertex 148.5 166.25833129882812 0.800000011920929
vertex 149.9327850341797 166.97177124023438 0.800000011920929
vertex 149.9327850341797 166.97177124023438 0.4000000059604645
endloop
endfacet
facet normal 0.0 0.0 1.0
outer loop
vertex 151.4423828125 167.50372314453125 0.800000011920929
vertex 149.9327850341797 166.97177124023438 0.800000011920929
vertex 151.37840270996094 162.74658203125 0.800000011920929
endloop
endfacet
facet normal -0.2534651828807648 0.6401831754024913 -0.7252040423210583
outer loop
vertex 149.9327850341797 166.97177124023438 0.4000000059604645
vertex 151.10638427734375 166.98330688476562 0.0
vertex 149.6351776123047 166.40081787109375 0.0
endloop
endfacet
facet normal -0.2412043596272944 0.6845009153521633 -0.6879527264128236
outer loop
vertex 149.9327850341797 166.97177124023438 0.4000000059604645
vertex 151.4423828125 167.50372314453125 0.4000000059604645
vertex 151.10638427734375 166.98330688476562 0.0
endloop
endfacet
facet normal -0.33234933738199657 0.9431563592224504 0.0
outer loop
vertex 149.9327850341797 166.97177124023438 0.800000011920929
vertex 151.4423828125 167.50372314453125 0.4000000059604645
vertex 149.9327850341797 166.97177124023438 0.4000000059604645
endloop
endfacet
facet normal 0.0 0.0 -1.0
outer loop
vertex 149.6351776123047 166.40081787109375 0.0
vertex 151.10638427734375 166.98330688476562 0.0
vertex 152.63900756835938 167.37681579589844 0.0
endloop
endfacet
facet normal -0.17140086896403833 0.6675654767724976 -0.7245537083887438
outer loop
vertex 151.4423828125 167.50372314453125 0.4000000059604645
vertex 152.63900756835938 167.37681579589844 0.0
vertex 151.10638427734375 166.98330688476562 0.0
endloop
endfacet
facet normal -0.33234933738199657 0.9431563592224504 0.0
outer loop
vertex 149.9327850341797 166.97177124023438 0.800000011920929
vertex 151.4423828125 167.50372314453125 0.800000011920929
vertex 151.4423828125 167.50372314453125 0.4000000059604645
endloop
endfacet
facet normal -0.0 0.0 1.0
outer loop
vertex 153.0059051513672 167.8461456298828 0.800000011920929
vertex 151.37840270996094 162.74658203125 0.800000011920929
vertex 154.9097137451172 162.74658203125 0.800000011920929
endloop
endfacet
facet normal 0.0 0.0 -1.0
outer loop
vertex 148.2485809326172 165.63853454589844 0.0
vertex 149.6351776123047 166.40081787109375 0.0
vertex 161.7514190673828 165.63853454589844 0.0
endloop
endfacet
facet normal 0.0 0.0 0.9999999999999999
outer loop
vertex 153.0059051513672 167.8461456298828 0.800000011920929
vertex 151.4423828125 167.50372314453125 0.800000011920929
vertex 151.37840270996094 162.74658203125 0.800000011920929
endloop
endfacet
facet normal -0.1551095102755783 0.7082396590797059 -0.6887217327257305
outer loop
vertex 151.4423828125 167.50372314453125 0.4000000059604645
vertex 153.0059051513672 167.8461456298828 0.4000000059604645
vertex 152.63900756835938 167.37681579589844 0.0
endloop
endfacet
facet normal -0.21393654619818997 0.9768475593462828 0.0
outer loop
vertex 151.4423828125 167.50372314453125 0.800000011920929
vertex 153.0059051513672 167.8461456298828 0.4000000059604645
vertex 151.4423828125 167.50372314453125 0.4000000059604645
endloop
endfacet
facet normal -0.0864758291122946 0.6845210259984597 -0.7238459062157895
outer loop
vertex 153.0059051513672 167.8461456298828 0.4000000059604645
vertex 154.20884704589844 167.57513427734375 0.0
vertex 152.63900756835938 167.37681579589844 0.0
endloop
endfacet
facet normal -0.21393654619818997 0.9768475593462828 0.0
outer loop
vertex 151.4423828125 167.50372314453125 0.800000011920929
vertex 153.0059051513672 167.8461456298828 0.800000011920929
vertex 153.0059051513672 167.8461456298828 0.4000000059604645
endloop
endfacet
facet normal 0.0 0.0 1.0
outer loop
vertex 154.5996551513672 167.99383544921875 0.800000011920929
vertex 153.0059051513672 167.8461456298828 0.800000011920929
vertex 154.9097137451172 162.74658203125 0.800000011920929
endloop
endfacet
facet normal -0.06682643139632184 0.721137215258087 -0.689561704879733
outer loop
vertex 153.0059051513672 167.8461456298828 0.4000000059604645
vertex 154.5996551513672 167.99383544921875 0.4000000059604645
vertex 154.20884704589844 167.57513427734375 0.0
endloop
endfacet
facet normal -0.09227277812124199 0.99573376683619 0.0
outer loop
vertex 153.0059051513672 167.8461456298828 0.800000011920929
vertex 154.5996551513672 167.99383544921875 0.4000000059604645
vertex 153.0059051513672 167.8461456298828 0.4000000059604645
endloop
endfacet
facet normal 0.0 0.0 -1.0
outer loop
vertex 149.6351776123047 166.40081787109375 0.0
vertex 152.63900756835938 167.37681579589844 0.0
vertex 161.7514190673828 165.63853454589844 0.0
endloop
endfacet
facet normal 0.0 0.0 -1.0
outer loop
vertex 152.63900756835938 167.37681579589844 0.0
vertex 154.20884704589844 167.57513427734375 0.0
vertex 157.36099243164062 167.37681579589844 0.0
endloop
endfacet
facet normal 0.0 0.6907745158408899 -0.7230702374353297
outer loop
vertex 154.5996551513672 167.99383544921875 0.4000000059604645
vertex 155.79115295410156 167.57513427734375 0.0
vertex 154.20884704589844 167.57513427734375 0.0
endloop
endfacet
facet normal -0.09227277812124199 0.99573376683619 0.0
outer loop
vertex 153.0059051513672 167.8461456298828 0.800000011920929
vertex 154.5996551513672 167.99383544921875 0.800000011920929
vertex 154.5996551513672 167.99383544921875 0.4000000059604645
endloop
endfacet
facet normal 0.0 1.0 -0.0
outer loop
vertex 154.9097137451172 162.74658203125 0.800000011920929
vertex 151.37840270996094 162.74658203125 0.800000011920929
vertex 154.9097137451172 162.74658203125 8.399999618530273
endloop
endfacet
facet normal 0.0 -0.707112681761517 0.7071008805623392
outer loop
vertex 146.3520050048828 155.10015869140625 8.399999618530273
vertex 149.66822814941406 155.50015258789062 8.800000190734863
vertex 147.0936279296875 155.50015258789062 8.800000190734863
endloop
endfacet
facet normal -0.5908751536854538 0.3884134299753458 0.7071078843938727
outer loop
vertex 151.37840270996094 162.74658203125 8.399999618530273
vertex 146.3520050048828 155.10015869140625 8.399999618530273
vertex 147.0936279296875 155.50015258789062 8.800000190734863
endloop
endfacet
facet normal -0.0 -1.0 -0.0
outer loop
vertex 149.8839874267578 155.10015869140625 8.399999618530273
vertex 146.3520050048828 155.10015869140625 8.399999618530273
vertex 149.8839874267578 155.10015869140625 0.800000011920929
endloop
endfacet
facet normal 0.8356586375822993 -0.549249161523343 0.0
outer loop
vertex 149.8839874267578 155.10015869140625 8.399999618530273
vertex 149.8839874267578 155.10015869140625 0.800000011920929
vertex 154.9097137451172 162.74658203125 8.399999618530273
endloop
endfacet
facet normal -0.8356249597309193 0.5493003974827428 0.0
outer loop
vertex 151.37840270996094 162.74658203125 0.800000011920929
vertex 146.3520050048828 155.10015869140625 8.399999618530273
vertex 151.37840270996094 162.74658203125 8.399999618530273
endloop
endfacet
facet normal -0.8356135240190262 0.5493177937009727 0.0
outer loop
vertex 158.32691955566406 162.74658203125 0.800000011920929
vertex 148.14198303222656 147.25341796875 8.399999618530273
vertex 158.32691955566406 162.74658203125 8.399999618530273
endloop
endfacet
facet normal 0.0 -0.707112681761517 0.7071008805623392
outer loop
vertex 146.3520050048828 155.10015869140625 8.399999618530273
vertex 149.8839874267578 155.10015869140625 8.399999618530273
vertex 149.66822814941406 155.50015258789062 8.800000190734863
endloop
endfacet
facet normal 0.0 -0.0 1.0
outer loop
vertex 149.66822814941406 155.50015258789062 8.800000190734863
vertex 151.59414672851562 162.34657287597656 8.800000190734863
vertex 147.0936279296875 155.50015258789062 8.800000190734863
endloop
endfacet
facet normal 0.5909015847870627 -0.38837990328402267 0.7071042128436452
outer loop
vertex 149.8839874267578 155.10015869140625 8.399999618530273
vertex 154.16815185546875 162.34657287597656 8.800000190734863
vertex 149.66822814941406 155.50015258789062 8.800000190734863
endloop
endfacet
facet normal -0.5908715658561001 0.38841153156430497 0.7071119252357658
outer loop
vertex 151.37840270996094 162.74658203125 8.399999618530273
vertex 147.0936279296875 155.50015258789062 8.800000190734863
vertex 151.59414672851562 162.34657287597656 8.800000190734863
endloop
endfacet
facet normal -0.5908604601634398 0.38842138743883237 0.7071157913634373
outer loop
vertex 158.32691955566406 162.74658203125 8.399999618530273
vertex 148.14198303222656 147.25341796875 8.399999618530273
vertex 158.54266357421875 162.34657287597656 8.800000190734863
endloop
endfacet
facet normal 0.0 -0.0 1.0
outer loop
vertex 149.66822814941406 155.50015258789062 8.800000190734863
vertex 154.16815185546875 162.34657287597656 8.800000190734863
vertex 151.59414672851562 162.34657287597656 8.800000190734863
endloop
endfacet
facet normal 0.5909092455791053 -0.3883839561686468 0.7070955848256467
outer loop
vertex 149.8839874267578 155.10015869140625 8.399999618530273
vertex 154.9097137451172 162.74658203125 8.399999618530273
vertex 154.16815185546875 162.34657287597656 8.800000190734863
endloop
endfacet
facet normal 0.0 1.0 0.0
outer loop
vertex 151.37840270996094 162.74658203125 0.800000011920929
vertex 151.37840270996094 162.74658203125 8.399999618530273
vertex 154.9097137451172 162.74658203125 8.399999618530273
endloop
endfacet
facet normal 0.0 0.7070991948053651 0.7071143674863383
outer loop
vertex 154.9097137451172 162.74658203125 8.399999618530273
vertex 151.37840270996094 162.74658203125 8.399999618530273
vertex 151.59414672851562 162.34657287597656 8.800000190734863
endloop
endfacet
facet normal -0.0 0.7070991948053652 0.7071143674863384
outer loop
vertex 154.9097137451172 162.74658203125 8.399999618530273
vertex 151.59414672851562 162.34657287597656 8.800000190734863
vertex 154.16815185546875 162.34657287597656 8.800000190734863
endloop
endfacet
facet normal 0.022281029099690812 -0.723026635102223 -0.6904607452093244
outer loop
vertex 156.19949340820312 142.0554656982422 0.4000000059604645
vertex 154.5996551513672 142.00616455078125 0.4000000059604645
vertex 155.79115295410156 142.42486572265625 0.0
endloop
endfacet
facet normal 0.0 0.0 -1.0
outer loop
vertex 155.79115295410156 142.42486572265625 0.0
vertex 154.20884704589844 142.42486572265625 0.0
vertex 157.36099243164062 142.62318420410156 0.0
endloop
endfacet
facet normal 0.030801710474788007 -0.9995255147477865 0.0
outer loop
vertex 156.19949340820312 142.0554656982422 0.800000011920929
vertex 154.5996551513672 142.00616455078125 0.4000000059604645
vertex 156.19949340820312 142.0554656982422 0.4000000059604645
endloop
endfacet
facet normal 0.08668967612059936 -0.6862137854092007 -0.722215716229217
outer loop
vertex 157.36099243164062 142.62318420410156 0.0
vertex 156.19949340820312 142.0554656982422 0.4000000059604645
vertex 155.79115295410156 142.42486572265625 0.0
endloop
endfacet
facet normal 0.030801710474788007 -0.9995255147477865 0.0
outer loop
vertex 156.19949340820312 142.0554656982422 0.800000011920929
vertex 154.5996551513672 142.00616455078125 0.800000011920929
vertex 154.5996551513672 142.00616455078125 0.4000000059604645
endloop
endfacet
facet normal -0.0 0.0 1.0
outer loop
vertex 155.09014892578125 147.25341796875 0.800000011920929
vertex 154.5996551513672 142.00616455078125 0.800000011920929
vertex 156.19949340820312 142.0554656982422 0.800000011920929
endloop
endfacet
facet normal -0.0 0.0 1.0
outer loop
vertex 155.09014892578125 147.25341796875 0.800000011920929
vertex 156.19949340820312 142.0554656982422 0.800000011920929
vertex 157.7811279296875 142.30096435546875 0.800000011920929
endloop
endfacet
facet normal 0.11080685381632736 -0.7138774085075267 -0.6914483977636401
outer loop
vertex 157.7811279296875 142.30096435546875 0.4000000059604645
vertex 156.19949340820312 142.0554656982422 0.4000000059604645
vertex 157.36099243164062 142.62318420410156 0.0
endloop
endfacet
facet normal 0.15338162849591228 -0.9881670284116657 0.0
outer loop
vertex 157.7811279296875 142.30096435546875 0.800000011920929
vertex 156.19949340820312 142.0554656982422 0.4000000059604645
vertex 157.7811279296875 142.30096435546875 0.4000000059604645
endloop
endfacet
facet normal 0.17224358420804065 -0.6708476515190205 -0.7213151711634677
outer loop
vertex 158.89361572265625 143.01669311523438 0.0
vertex 157.7811279296875 142.30096435546875 0.4000000059604645
vertex 157.36099243164062 142.62318420410156 0.0
endloop
endfacet
facet normal -0.0 0.0 -1.0
outer loop
vertex 157.36099243164062 142.62318420410156 0.0
vertex 154.20884704589844 142.42486572265625 0.0
vertex 161.7514190673828 144.36146545410156 0.0
endloop
endfacet
facet normal 0.15338162849591228 -0.9881670284116657 0.0
outer loop
vertex 157.7811279296875 142.30096435546875 0.800000011920929
vertex 156.19949340820312 142.0554656982422 0.800000011920929
vertex 156.19949340820312 142.0554656982422 0.4000000059604645
endloop
endfacet
facet normal 0.0 0.0 1.0
outer loop
vertex 158.6221160888672 147.25341796875 0.800000011920929
vertex 155.09014892578125 147.25341796875 0.800000011920929
vertex 157.7811279296875 142.30096435546875 0.800000011920929
endloop
endfacet
facet normal 0.19742731707505953 -0.6938841861290264 -0.6924934589673772
outer loop
vertex 159.3206024169922 142.73898315429688 0.4000000059604645
vertex 157.7811279296875 142.30096435546875 0.4000000059604645
vertex 158.89361572265625 143.01669311523438 0.0
endloop
endfacet
facet normal 0.2736633034959395 -0.9618255539959879 0.0
outer loop
vertex 157.7811279296875 142.30096435546875 0.800000011920929
vertex 157.7811279296875 142.30096435546875 0.4000000059604645
vertex 159.3206024169922 142.73898315429688 0.4000000059604645
endloop
endfacet
facet normal -0.0 0.0 -0.9999999999999999
outer loop
vertex 158.89361572265625 143.01669311523438 0.0
vertex 157.36099243164062 142.62318420410156 0.0
vertex 161.7514190673828 144.36146545410156 0.0
endloop
endfacet
facet normal 0.2553430875387928 -0.6449262448584845 -0.7203263471086494
outer loop
vertex 160.3648223876953 143.59918212890625 0.0
vertex 159.3206024169922 142.73898315429688 0.4000000059604645
vertex 158.89361572265625 143.01669311523438 0.0
endloop
endfacet
facet normal 0.2736633034959395 -0.9618255539959879 0.0
outer loop
vertex 159.3206024169922 142.73898315429688 0.800000011920929
vertex 157.7811279296875 142.30096435546875 0.800000011920929
vertex 159.3206024169922 142.73898315429688 0.4000000059604645
endloop
endfacet
facet normal 0.38979175054558984 -0.9209030302950494 0.0
outer loop
vertex 160.7946014404297 143.36288452148438 0.800000011920929
vertex 159.3206024169922 142.73898315429688 0.800000011920929
vertex 159.3206024169922 142.73898315429688 0.4000000059604645
endloop
endfacet
facet normal -0.0 0.0 -1.0
outer loop
vertex 161.7514190673828 144.36146545410156 0.0
vertex 154.20884704589844 142.42486572265625 0.0
vertex 163.0315399169922 145.29153442382812 0.0
endloop
endfacet
facet normal -0.0 0.0 1.0
outer loop
vertex 158.6221160888672 147.25341796875 0.800000011920929
vertex 157.7811279296875 142.30096435546875 0.800000011920929
vertex 159.3206024169922 142.73898315429688 0.800000011920929
endloop
endfacet
facet normal -0.0 0.0 1.0
outer loop
vertex 158.6221160888672 147.25341796875 0.800000011920929
vertex 159.3206024169922 142.73898315429688 0.800000011920929
vertex 160.7946014404297 143.36288452148438 0.800000011920929
endloop
endfacet
facet normal 0.2807937037456625 -0.6633895466110105 -0.6935915263208102
outer loop
vertex 160.7946014404297 143.36288452148438 0.4000000059604645
vertex 159.3206024169922 142.73898315429688 0.4000000059604645
vertex 160.3648223876953 143.59918212890625 0.0
endloop
endfacet
facet normal 0.38979175054558984 -0.9209030302950494 0.0
outer loop
vertex 160.7946014404297 143.36288452148438 0.800000011920929
vertex 159.3206024169922 142.73898315429688 0.4000000059604645
vertex 160.7946014404297 143.36288452148438 0.4000000059604645
endloop
endfacet
facet normal 0.5000024799399615 -0.8660239719856999 0.0
outer loop
vertex 160.7946014404297 143.36288452148438 0.800000011920929
vertex 160.7946014404297 143.36288452148438 0.4000000059604645
vertex 162.1807403564453 144.16317749023438 0.4000000059604645
endloop
endfacet
facet normal -0.0 0.0 -1.0
outer loop
vertex 160.3648223876953 143.59918212890625 0.0
vertex 158.89361572265625 143.01669311523438 0.0
vertex 161.7514190673828 144.36146545410156 0.0
endloop
endfacet
facet normal 0.33469279047473194 -0.6088076396905306 -0.7192593369979164
outer loop
vertex 161.7514190673828 144.36146545410156 0.0
vertex 160.7946014404297 143.36288452148438 0.4000000059604645
vertex 160.3648223876953 143.59918212890625 0.0
endloop
endfacet
facet normal 0.0 0.0 1.0
outer loop
vertex 162.1807403564453 144.16317749023438 0.800000011920929
vertex 158.6221160888672 147.25341796875 0.800000011920929
vertex 160.7946014404297 143.36288452148438 0.800000011920929
endloop
endfacet
facet normal -0.0 0.0 -1.0
outer loop
vertex 163.0315399169922 145.29153442382812 0.0
vertex 154.20884704589844 142.42486572265625 0.0
vertex 166.0414581298828 148.92990112304688 0.0
endloop
endfacet
facet normal 0.0 0.0 1.0
outer loop
vertex 163.45803833007812 145.12774658203125 0.800000011920929
vertex 158.6221160888672 147.25341796875 0.800000011920929
vertex 162.1807403564453 144.16317749023438 0.800000011920929
endloop
endfacet
facet normal 0.0 -1.0 0.0
outer loop
vertex 155.09014892578125 147.25341796875 8.399999618530273
vertex 155.09014892578125 147.25341796875 0.800000011920929
vertex 158.6221160888672 147.25341796875 0.800000011920929
endloop
endfacet
facet normal -0.0 0.0 1.0
outer loop
vertex 161.8578643798828 162.74658203125 0.800000011920929
vertex 151.6732635498047 147.25341796875 0.800000011920929
vertex 155.09014892578125 147.25341796875 0.800000011920929
endloop
endfacet
facet normal -0.0 0.0 1.0
outer loop
vertex 161.8578643798828 162.74658203125 0.800000011920929
vertex 155.09014892578125 147.25341796875 0.800000011920929
vertex 160.11688232421875 154.90017700195312 0.800000011920929
endloop
endfacet
facet normal -0.8356191901304706 0.5493091744051762 0.0
outer loop
vertex 160.11688232421875 154.90017700195312 0.800000011920929
vertex 155.09014892578125 147.25341796875 0.800000011920929
vertex 155.09014892578125 147.25341796875 8.399999618530273
endloop
endfacet
facet normal 0.8356218346986322 -0.5493051514184917 0.0
outer loop
vertex 151.6732635498047 147.25341796875 8.399999618530273
vertex 151.6732635498047 147.25341796875 0.800000011920929
vertex 161.8578643798828 162.74658203125 0.800000011920929
endloop
endfacet
facet normal 0.8356360284068334 -0.5492835588550359 0.0
outer loop
vertex 158.6221160888672 147.25341796875 8.399999618530273
vertex 158.6221160888672 147.25341796875 0.800000011920929
vertex 163.6485137939453 154.90017700195312 0.800000011920929
endloop
endfacet
facet normal 0.0 0.9999999999999999 -0.0
outer loop
vertex 163.6485137939453 154.90017700195312 0.800000011920929
vertex 160.11688232421875 154.90017700195312 0.800000011920929
vertex 160.11688232421875 154.90017700195312 8.399999618530273
endloop
endfacet
facet normal 0.35962301564407456 -0.622881215435079 -0.6947591511287781
outer loop
vertex 162.1807403564453 144.16317749023438 0.4000000059604645
vertex 160.7946014404297 143.36288452148438 0.4000000059604645
vertex 161.7514190673828 144.36146545410156 0.0
endloop
endfacet
facet normal 0.4090492863537992 -0.5630039674727353 -0.7181261824661502
outer loop
vertex 163.0315399169922 145.29153442382812 0.0
vertex 162.1807403564453 144.16317749023438 0.4000000059604645
vertex 161.7514190673828 144.36146545410156 0.0
endloop
endfacet
facet normal 0.432712686655815 -0.573005129991325 -0.6960063590303834
outer loop
vertex 163.45803833007812 145.12774658203125 0.4000000059604645
vertex 162.1807403564453 144.16317749023438 0.4000000059604645
vertex 163.0315399169922 145.29153442382812 0.0
endloop
endfacet
facet normal 0.6026340142880241 -0.7980176970613505 0.0
outer loop
vertex 162.1807403564453 144.16317749023438 0.800000011920929
vertex 162.1807403564453 144.16317749023438 0.4000000059604645
vertex 163.45803833007812 145.12774658203125 0.4000000059604645
endloop
endfacet
facet normal 0.5000024799399615 -0.8660239719856999 0.0
outer loop
vertex 162.1807403564453 144.16317749023438 0.800000011920929
vertex 160.7946014404297 143.36288452148438 0.800000011920929
vertex 162.1807403564453 144.16317749023438 0.4000000059604645
endloop
endfacet
facet normal 0.6026340142880241 -0.7980176970613505 0.0
outer loop
vertex 163.45803833007812 145.12774658203125 0.800000011920929
vertex 162.1807403564453 144.16317749023438 0.800000011920929
vertex 163.45803833007812 145.12774658203125 0.4000000059604645
endloop
endfacet
facet normal 0.0 0.0 1.0
outer loop
vertex 164.60711669921875 146.24195861816406 0.800000011920929
vertex 158.6221160888672 147.25341796875 0.800000011920929
vertex 163.45803833007812 145.12774658203125 0.800000011920929
endloop
endfacet
facet normal 0.0 0.0 1.0
outer loop
vertex 165.61056518554688 147.4889373779297 0.800000011920929
vertex 158.6221160888672 147.25341796875 0.800000011920929
vertex 164.60711669921875 146.24195861816406 0.800000011920929
endloop
endfacet
facet normal 0.47722842247188857 -0.5081934458410339 -0.7169326707503354
outer loop
vertex 164.18499755859375 146.3747100830078 0.0
vertex 163.45803833007812 145.12774658203125 0.4000000059604645
vertex 163.0315399169922 145.29153442382812 0.0
endloop
endfacet
facet normal 0.4989568469253862 -0.5145703881700214 -0.6973230101788052
outer loop
vertex 164.60711669921875 146.24195861816406 0.4000000059604645
vertex 163.45803833007812 145.12774658203125 0.4000000059604645
vertex 164.18499755859375 146.3747100830078 0.0
endloop
endfacet
facet normal 0.6961310960827407 -0.7179146864820651 0.0
outer loop
vertex 164.60711669921875 146.24195861816406 0.800000011920929
vertex 163.45803833007812 145.12774658203125 0.4000000059604645
vertex 164.60711669921875 146.24195861816406 0.4000000059604645
endloop
endfacet
facet normal -0.0 0.0 -1.0
outer loop
vertex 164.18499755859375 146.3747100830078 0.0
vertex 163.0315399169922 145.29153442382812 0.0
vertex 166.0414581298828 148.92990112304688 0.0
endloop
endfacet
facet normal 0.5381566176452353 -0.44520284384863834 -0.715668835924637
outer loop
vertex 165.193603515625 147.59390258789062 0.0
vertex 164.60711669921875 146.24195861816406 0.4000000059604645
vertex 164.18499755859375 146.3747100830078 0.0
endloop
endfacet
facet normal 0.6961310960827407 -0.7179146864820651 0.0
outer loop
vertex 164.60711669921875 146.24195861816406 0.800000011920929
vertex 163.45803833007812 145.12774658203125 0.800000011920929
vertex 163.45803833007812 145.12774658203125 0.4000000059604645
endloop
endfacet
facet normal 0.7790780076938723 -0.626926995692279 0.0
outer loop
vertex 165.61056518554688 147.4889373779297 0.800000011920929
vertex 164.60711669921875 146.24195861816406 0.800000011920929
vertex 164.60711669921875 146.24195861816406 0.4000000059604645
endloop
endfacet
facet normal 0.5573662280367568 -0.44851469479642203 -0.6986969703639412
outer loop
vertex 165.61056518554688 147.4889373779297 0.4000000059604645
vertex 164.60711669921875 146.24195861816406 0.4000000059604645
vertex 165.193603515625 147.59390258789062 0.0
endloop
endfacet
facet normal -0.0 0.0 -1.0
outer loop
vertex 165.193603515625 147.59390258789062 0.0
vertex 164.18499755859375 146.3747100830078 0.0
vertex 166.0414581298828 148.92990112304688 0.0
endloop
endfacet
facet normal 0.7790780076938723 -0.626926995692279 0.0
outer loop
vertex 165.61056518554688 147.4889373779297 0.800000011920929
vertex 164.60711669921875 146.24195861816406 0.4000000059604645
vertex 165.61056518554688 147.4889373779297 0.4000000059604645
endloop
endfacet
facet normal 0.5908709459543163 -0.3749799455428707 -0.7143259519769088
outer loop
vertex 166.0414581298828 148.92990112304688 0.0
vertex 165.61056518554688 147.4889373779297 0.4000000059604645
vertex 165.193603515625 147.59390258789062 0.0
endloop
endfacet
facet normal 0.6070834127197046 -0.37588323205003177 -0.7001153661106281
outer loop
vertex 166.45315551757812 148.84979248046875 0.4000000059604645
vertex 165.61056518554688 147.4889373779297 0.4000000059604645
vertex 166.0414581298828 148.92990112304688 0.0
endloop
endfacet
facet normal 0.8502214627949582 -0.5264251743627022 0.0
outer loop
vertex 166.45315551757812 148.84979248046875 0.800000011920929
vertex 165.61056518554688 147.4889373779297 0.4000000059604645
vertex 166.45315551757812 148.84979248046875 0.4000000059604645
endloop
endfacet
facet normal 0.8502214627949582 -0.5264251743627022 0.0
outer loop
vertex 166.45315551757812 148.84979248046875 0.800000011920929
vertex 165.61056518554688 147.4889373779297 0.800000011920929
vertex 165.61056518554688 147.4889373779297 0.4000000059604645
endloop
endfacet
facet normal -0.0 0.0 -1.0
outer loop
vertex 166.0414581298828 148.92990112304688 0.0
vertex 154.20884704589844 142.42486572265625 0.0
vertex 167.60000610351562 155.0 0.0
endloop
endfacet
facet normal -0.0 0.0 1.0
outer loop
vertex 163.6485137939453 154.90017700195312 0.800000011920929
vertex 158.6221160888672 147.25341796875 0.800000011920929
vertex 165.61056518554688 147.4889373779297 0.800000011920929
endloop
endfacet
facet normal -0.0 0.0 1.0
outer loop
vertex 163.6485137939453 154.90017700195312 0.800000011920929
vertex 165.61056518554688 147.4889373779297 0.800000011920929
vertex 166.45315551757812 148.84979248046875 0.800000011920929
endloop
endfacet
facet normal -0.0 0.0 1.0
outer loop
vertex 163.6485137939453 154.90017700195312 0.800000011920929
vertex 166.45315551757812 148.84979248046875 0.800000011920929
vertex 167.1221466064453 150.30386352539062 0.800000011920929
endloop
endfacet
facet normal 0.6345342938785864 -0.29858885940127067 -0.7128891378983494
outer loop
vertex 166.71517944335938 150.36163330078125 0.0
vertex 166.45315551757812 148.84979248046875 0.4000000059604645
vertex 166.0414581298828 148.92990112304688 0.0
endloop
endfacet
facet normal 0.6473287845961865 -0.297823954320845 -0.7016169445401951
outer loop
vertex 167.1221466064453 150.30386352539062 0.4000000059604645
vertex 166.45315551757812 148.84979248046875 0.4000000059604645
vertex 166.71517944335938 150.36163330078125 0.0
endloop
endfacet
facet normal 0.9084623638649579 -0.4179666654661505 0.0
outer loop
vertex 167.1221466064453 150.30386352539062 0.800000011920929
vertex 166.45315551757812 148.84979248046875 0.4000000059604645
vertex 167.1221466064453 150.30386352539062 0.4000000059604645
endloop
endfacet
facet normal 0.9084623638649579 -0.4179666654661505 0.0
outer loop
vertex 167.1221466064453 150.30386352539062 0.800000011920929
vertex 166.45315551757812 148.84979248046875 0.800000011920929
vertex 166.45315551757812 148.84979248046875 0.4000000059604645
endloop
endfacet
facet normal -0.0 0.0 -1.0
outer loop
vertex 166.71517944335938 150.36163330078125 0.0
vertex 166.0414581298828 148.92990112304688 0.0
vertex 167.2041473388672 151.86651611328125 0.0
endloop
endfacet
facet normal 0.6683914666737147 -0.21717436475461538 -0.711398722638149
outer loop
vertex 167.2041473388672 151.86651611328125 0.0
vertex 167.1221466064453 150.30386352539062 0.4000000059604645
vertex 166.71517944335938 150.36163330078125 0.0
endloop
endfacet
facet normal -0.0 0.0 -0.9999999999999999
outer loop
vertex 167.2041473388672 151.86651611328125 0.0
vertex 166.0414581298828 148.92990112304688 0.0
vertex 167.50064086914062 153.42080688476562 0.0
endloop
endfacet
facet normal 0.6775679527260543 -0.21554820805265962 -0.7031647313709004
outer loop
vertex 167.60736083984375 151.82911682128906 0.4000000059604645
vertex 167.1221466064453 150.30386352539062 0.4000000059604645
vertex 167.2041473388672 151.86651611328125 0.0
endloop
endfacet
facet normal 0.9529426809754145 -0.3031505348426575 0.0
outer loop
vertex 167.60736083984375 151.82911682128906 0.800000011920929
vertex 167.1221466064453 150.30386352539062 0.4000000059604645
vertex 167.60736083984375 151.82911682128906 0.4000000059604645
endloop
endfacet
facet normal 0.9529426809754145 -0.3031505348426575 0.0
outer loop
vertex 167.60736083984375 151.82911682128906 0.800000011920929
vertex 167.1221466064453 150.30386352539062 0.800000011920929
vertex 167.1221466064453 150.30386352539062 0.4000000059604645
endloop
endfacet
facet normal 0.0 0.0 0.9999999999999999
outer loop
vertex 167.60736083984375 151.82911682128906 0.800000011920929
vertex 163.6485137939453 154.90017700195312 0.800000011920929
vertex 167.1221466064453 150.30386352539062 0.800000011920929
endloop
endfacet
facet normal -0.0 0.0 -0.9999999999999999
outer loop
vertex 167.50064086914062 153.42080688476562 0.0
vertex 166.0414581298828 148.92990112304688 0.0
vertex 167.60000610351562 155.0 0.0
endloop
endfacet
facet normal 0.6919137194663885 -0.13198813574199794 -0.7098130294926543
outer loop
vertex 167.50064086914062 153.42080688476562 0.0
vertex 167.60736083984375 151.82911682128906 0.4000000059604645
vertex 167.2041473388672 151.86651611328125 0.0
endloop
endfacet
facet normal 0.982974131891452 -0.18374399590801907 0.0
outer loop
vertex 167.60736083984375 151.82911682128906 0.800000011920929
vertex 167.60736083984375 151.82911682128906 0.4000000059604645
vertex 167.90145874023438 153.40245056152344 0.4000000059604645
endloop
endfacet
facet normal 0.6973595411460761 -0.13035503633061266 -0.7047675041286868
outer loop
vertex 167.90145874023438 153.40245056152344 0.4000000059604645
vertex 167.60736083984375 151.82911682128906 0.4000000059604645
vertex 167.50064086914062 153.42080688476562 0.0
endloop
endfacet
facet normal 0.982974131891452 -0.18374399590801907 0.0
outer loop
vertex 167.90145874023438 153.40245056152344 0.800000011920929
vertex 167.60736083984375 151.82911682128906 0.800000011920929
vertex 167.90145874023438 153.40245056152344 0.4000000059604645
endloop
endfacet
facet normal 0.7046714505249513 -0.044339000191494025 -0.7081470185470528
outer loop
vertex 167.60000610351562 155.0 0.0
vertex 167.90145874023438 153.40245056152344 0.4000000059604645
vertex 167.50064086914062 153.42080688476562 0.0
endloop
endfacet
facet normal 0.7064405306026864 -0.043575202218135656 -0.7064297406490213
outer loop
vertex 168.0 155.0 0.4000000059604645
vertex 167.90145874023438 153.40245056152344 0.4000000059604645
vertex 167.60000610351562 155.0 0.0
endloop
endfacet
facet normal 0.998103029942472 -0.06156575037841088 0.0
outer loop
vertex 168.0 155.0 0.800000011920929
vertex 167.90145874023438 153.40245056152344 0.4000000059604645
vertex 168.0 155.0 0.4000000059604645
endloop
endfacet
facet normal 0.0 0.0 1.0
outer loop
vertex 167.90145874023438 153.40245056152344 0.800000011920929
vertex 163.6485137939453 154.90017700195312 0.800000011920929
vertex 167.60736083984375 151.82911682128906 0.800000011920929
endloop
endfacet
facet normal 0.0 0.0 0.9999999999999999
outer loop
vertex 168.0 155.0 0.800000011920929
vertex 163.6485137939453 154.90017700195312 0.800000011920929
vertex 167.90145874023438 153.40245056152344 0.800000011920929
endloop
endfacet
facet normal 0.998103029942472 -0.06156575037841088 0.0
outer loop
vertex 168.0 155.0 0.800000011920929
vertex 167.90145874023438 153.40245056152344 0.800000011920929
vertex 167.90145874023438 153.40245056152344 0.4000000059604645
endloop
endfacet
facet normal -0.0 -1.0 -0.0
outer loop
vertex 158.6221160888672 147.25341796875 8.399999618530273
vertex 155.09014892578125 147.25341796875 8.399999618530273
vertex 158.6221160888672 147.25341796875 0.800000011920929
endloop
endfacet
facet normal 0.0 -0.7070991948053651 0.7071143674863383
outer loop
vertex 155.09014892578125 147.25341796875 8.399999618530273
vertex 158.4063720703125 147.65342712402344 8.800000190734863
vertex 155.831787109375 147.65342712402344 8.800000190734863
endloop
endfacet
facet normal 0.0 -0.7070991948053652 0.7071143674863383
outer loop
vertex 155.09014892578125 147.25341796875 8.399999618530273
vertex 158.6221160888672 147.25341796875 8.399999618530273
vertex 158.4063720703125 147.65342712402344 8.800000190734863
endloop
endfacet
facet normal -0.8356191901304706 0.5493091744051762 0.0
outer loop
vertex 160.11688232421875 154.90017700195312 0.800000011920929
vertex 155.09014892578125 147.25341796875 8.399999618530273
vertex 160.11688232421875 154.90017700195312 8.399999618530273
endloop
endfacet
facet normal -0.5908736005636892 0.38842129708961853 0.7071048607696884
outer loop
vertex 160.11688232421875 154.90017700195312 8.399999618530273
vertex 155.09014892578125 147.25341796875 8.399999618530273
vertex 155.831787109375 147.65342712402344 8.800000190734863
endloop
endfacet
facet normal 0.0 -0.0 1.0
outer loop
vertex 158.4063720703125 147.65342712402344 8.800000190734863
vertex 160.33262634277344 154.50018310546875 8.800000190734863
vertex 155.831787109375 147.65342712402344 8.800000190734863
endloop
endfacet
facet normal 0.590882901485765 -0.3884014714079273 0.7071079788405167
outer loop
vertex 158.6221160888672 147.25341796875 8.399999618530273
vertex 163.6485137939453 154.90017700195312 8.399999618530273
vertex 158.4063720703125 147.65342712402344 8.800000190734863
endloop
endfacet
facet normal -0.5908721833095528 0.3884205471569968 0.7071064570043619
outer loop
vertex 160.11688232421875 154.90017700195312 8.399999618530273
vertex 155.831787109375 147.65342712402344 8.800000190734863
vertex 160.33262634277344 154.50018310546875 8.800000190734863
endloop
endfacet
facet normal 0.0 -0.0 1.0
outer loop
vertex 158.4063720703125 147.65342712402344 8.800000190734863
vertex 162.9069061279297 154.50018310546875 8.800000190734863
vertex 160.33262634277344 154.50018310546875 8.800000190734863
endloop
endfacet
facet normal 0.0 0.707112681761517 0.7071008805623392
outer loop
vertex 163.6485137939453 154.90017700195312 8.399999618530273
vertex 160.11688232421875 154.90017700195312 8.399999618530273
vertex 160.33262634277344 154.50018310546875 8.800000190734863
endloop
endfacet
facet normal 0.8356360284068334 -0.5492835588550359 0.0
outer loop
vertex 163.6485137939453 154.90017700195312 8.399999618530273
vertex 158.6221160888672 147.25341796875 8.399999618530273
vertex 163.6485137939453 154.90017700195312 0.800000011920929
endloop
endfacet
facet normal 0.0 0.9999999999999999 -0.0
outer loop
vertex 163.6485137939453 154.90017700195312 0.800000011920929
vertex 160.11688232421875 154.90017700195312 8.399999618530273
vertex 163.6485137939453 154.90017700195312 8.399999618530273
endloop
endfacet
facet normal 0.5908813198276227 -0.3884002162630967 0.7071099899489091
outer loop
vertex 158.4063720703125 147.65342712402344 8.800000190734863
vertex 163.6485137939453 154.90017700195312 8.399999618530273
vertex 162.9069061279297 154.50018310546875 8.800000190734863
endloop
endfacet
facet normal -0.0 0.707112681761517 0.7071008805623392
outer loop
vertex 163.6485137939453 154.90017700195312 8.399999618530273
vertex 160.33262634277344 154.50018310546875 8.800000190734863
vertex 162.9069061279297 154.50018310546875 8.800000190734863
endloop
endfacet
facet normal -0.0 0.0 -0.9999999999999999
outer loop
vertex 167.60000610351562 155.0 0.0
vertex 142.49935913085938 153.42080688476562 0.0
vertex 166.71517944335938 159.63836669921875 0.0
endloop
endfacet
facet normal 0.0 0.0 -1.0
outer loop
vertex 166.71517944335938 159.63836669921875 0.0
vertex 143.9585418701172 161.07009887695312 0.0
vertex 164.18499755859375 163.6252899169922 0.0
endloop
endfacet
facet normal 0.0 0.0 -1.0
outer loop
vertex 144.806396484375 162.40609741210938 0.0
vertex 161.7514190673828 165.63853454589844 0.0
vertex 164.18499755859375 163.6252899169922 0.0
endloop
endfacet
facet normal -0.0 0.0 1.0
outer loop
vertex 157.7811279296875 167.69903564453125 0.800000011920929
vertex 154.9097137451172 162.74658203125 0.800000011920929
vertex 158.32691955566406 162.74658203125 0.800000011920929
endloop
endfacet
facet normal 0.0 0.0 1.0
outer loop
vertex 156.19949340820312 167.9445343017578 0.800000011920929
vertex 154.5996551513672 167.99383544921875 0.800000011920929
vertex 154.9097137451172 162.74658203125 0.800000011920929
endloop
endfacet
facet normal 0.0 0.0 1.0
outer loop
vertex 157.7811279296875 167.69903564453125 0.800000011920929
vertex 156.19949340820312 167.9445343017578 0.800000011920929
vertex 154.9097137451172 162.74658203125 0.800000011920929
endloop
endfacet
facet normal 0.0 0.0 -1.0
outer loop
vertex 154.20884704589844 167.57513427734375 0.0
vertex 155.79115295410156 167.57513427734375 0.0
vertex 157.36099243164062 167.37681579589844 0.0
endloop
endfacet
facet normal 0.022281029099690812 0.723026635102223 -0.6904607452093244
outer loop
vertex 154.5996551513672 167.99383544921875 0.4000000059604645
vertex 156.19949340820312 167.9445343017578 0.4000000059604645
vertex 155.79115295410156 167.57513427734375 0.0
endloop
endfacet
facet normal 0.030801710474788007 0.9995255147477865 0.0
outer loop
vertex 154.5996551513672 167.99383544921875 0.800000011920929
vertex 156.19949340820312 167.9445343017578 0.4000000059604645
vertex 154.5996551513672 167.99383544921875 0.4000000059604645
endloop
endfacet
facet normal 0.08668967612059936 0.6862137854092007 -0.722215716229217
outer loop
vertex 156.19949340820312 167.9445343017578 0.4000000059604645
vertex 157.36099243164062 167.37681579589844 0.0
vertex 155.79115295410156 167.57513427734375 0.0
endloop
endfacet
facet normal 0.030801710474788007 0.9995255147477865 0.0
outer loop
vertex 154.5996551513672 167.99383544921875 0.800000011920929
vertex 156.19949340820312 167.9445343017578 0.800000011920929
vertex 156.19949340820312 167.9445343017578 0.4000000059604645
endloop
endfacet
facet normal 0.0 0.0 -1.0
outer loop
vertex 152.63900756835938 167.37681579589844 0.0
vertex 157.36099243164062 167.37681579589844 0.0
vertex 161.7514190673828 165.63853454589844 0.0
endloop
endfacet
facet normal 0.11080685381632736 0.7138774085075267 -0.6914483977636401
outer loop
vertex 156.19949340820312 167.9445343017578 0.4000000059604645
vertex 157.7811279296875 167.69903564453125 0.4000000059604645
vertex 157.36099243164062 167.37681579589844 0.0
endloop
endfacet
facet normal 0.15338162849591228 0.9881670284116657 0.0
outer loop
vertex 156.19949340820312 167.9445343017578 0.800000011920929
vertex 157.7811279296875 167.69903564453125 0.4000000059604645
vertex 156.19949340820312 167.9445343017578 0.4000000059604645
endloop
endfacet
facet normal 0.17224358420804065 0.6708476515190205 -0.7213151711634677
outer loop
vertex 157.7811279296875 167.69903564453125 0.4000000059604645
vertex 158.89361572265625 166.98330688476562 0.0
vertex 157.36099243164062 167.37681579589844 0.0
endloop
endfacet
facet normal 0.15338162849591228 0.9881670284116657 0.0
outer loop
vertex 156.19949340820312 167.9445343017578 0.800000011920929
vertex 157.7811279296875 167.69903564453125 0.800000011920929
vertex 157.7811279296875 167.69903564453125 0.4000000059604645
endloop
endfacet
facet normal -0.0 0.0 1.0
outer loop
vertex 160.7946014404297 166.63711547851562 0.800000011920929
vertex 158.32691955566406 162.74658203125 0.800000011920929
vertex 161.8578643798828 162.74658203125 0.800000011920929
endloop
endfacet
facet normal 0.0 0.0 1.0
outer loop
vertex 159.3206024169922 167.26101684570312 0.800000011920929
vertex 157.7811279296875 167.69903564453125 0.800000011920929
vertex 158.32691955566406 162.74658203125 0.800000011920929
endloop
endfacet
facet normal 0.0 0.0 1.0
outer loop
vertex 160.7946014404297 166.63711547851562 0.800000011920929
vertex 159.3206024169922 167.26101684570312 0.800000011920929
vertex 158.32691955566406 162.74658203125 0.800000011920929
endloop
endfacet
facet normal 0.19742731707505953 0.6938841861290264 -0.6924934589673772
outer loop
vertex 157.7811279296875 167.69903564453125 0.4000000059604645
vertex 159.3206024169922 167.26101684570312 0.4000000059604645
vertex 158.89361572265625 166.98330688476562 0.0
endloop
endfacet
facet normal 0.2736633034959395 0.9618255539959879 0.0
outer loop
vertex 157.7811279296875 167.69903564453125 0.800000011920929
vertex 159.3206024169922 167.26101684570312 0.4000000059604645
vertex 157.7811279296875 167.69903564453125 0.4000000059604645
endloop
endfacet
facet normal 0.0 0.0 -0.9999999999999999
outer loop
vertex 157.36099243164062 167.37681579589844 0.0
vertex 158.89361572265625 166.98330688476562 0.0
vertex 161.7514190673828 165.63853454589844 0.0
endloop
endfacet
facet normal 0.2553430875387928 0.6449262448584845 -0.7203263471086494
outer loop
vertex 159.3206024169922 167.26101684570312 0.4000000059604645
vertex 160.3648223876953 166.40081787109375 0.0
vertex 158.89361572265625 166.98330688476562 0.0
endloop
endfacet
facet normal 0.38979175054558984 0.9209030302950494 0.0
outer loop
vertex 159.3206024169922 167.26101684570312 0.800000011920929
vertex 160.7946014404297 166.63711547851562 0.4000000059604645
vertex 159.3206024169922 167.26101684570312 0.4000000059604645
endloop
endfacet
facet normal 0.2736633034959395 0.9618255539959879 0.0
outer loop
vertex 157.7811279296875 167.69903564453125 0.800000011920929
vertex 159.3206024169922 167.26101684570312 0.800000011920929
vertex 159.3206024169922 167.26101684570312 0.4000000059604645
endloop
endfacet
facet normal 0.0 0.0 -1.0
outer loop
vertex 158.89361572265625 166.98330688476562 0.0
vertex 160.3648223876953 166.40081787109375 0.0
vertex 161.7514190673828 165.63853454589844 0.0
endloop
endfacet
facet normal 0.33469279047473194 0.6088076396905306 -0.7192593369979164
outer loop
vertex 160.7946014404297 166.63711547851562 0.4000000059604645
vertex 161.7514190673828 165.63853454589844 0.0
vertex 160.3648223876953 166.40081787109375 0.0
endloop
endfacet
facet normal 0.2807937037456625 0.6633895466110105 -0.6935915263208102
outer loop
vertex 159.3206024169922 167.26101684570312 0.4000000059604645
vertex 160.7946014404297 166.63711547851562 0.4000000059604645
vertex 160.3648223876953 166.40081787109375 0.0
endloop
endfacet
facet normal 0.5000024799399615 0.8660239719856999 0.0
outer loop
vertex 160.7946014404297 166.63711547851562 0.800000011920929
vertex 162.1807403564453 165.83682250976562 0.4000000059604645
vertex 160.7946014404297 166.63711547851562 0.4000000059604645
endloop
endfacet
facet normal 0.38979175054558984 0.9209030302950494 0.0
outer loop
vertex 159.3206024169922 167.26101684570312 0.800000011920929
vertex 160.7946014404297 166.63711547851562 0.800000011920929
vertex 160.7946014404297 166.63711547851562 0.4000000059604645
endloop
endfacet
facet normal 0.0 1.0 -0.0
outer loop
vertex 161.8578643798828 162.74658203125 0.800000011920929
vertex 158.32691955566406 162.74658203125 0.800000011920929
vertex 161.8578643798828 162.74658203125 8.399999618530273
endloop
endfacet
facet normal -0.0 0.0 1.0
outer loop
vertex 161.8578643798828 162.74658203125 0.800000011920929
vertex 160.11688232421875 154.90017700195312 0.800000011920929
vertex 163.6485137939453 154.90017700195312 0.800000011920929
endloop
endfacet
facet normal 0.0 0.0 1.0
outer loop
vertex 166.45315551757812 161.15020751953125 0.800000011920929
vertex 161.8578643798828 162.74658203125 0.800000011920929
vertex 163.6485137939453 154.90017700195312 0.800000011920929
endloop
endfacet
facet normal -0.0 0.0 1.0
outer loop
vertex 167.1221466064453 159.69613647460938 0.800000011920929
vertex 163.6485137939453 154.90017700195312 0.800000011920929
vertex 167.60736083984375 158.17088317871094 0.800000011920929
endloop
endfacet
facet normal 0.7064405306026864 0.043575202218135656 -0.7064297406490213
outer loop
vertex 167.90145874023438 156.59754943847656 0.4000000059604645
vertex 168.0 155.0 0.4000000059604645
vertex 167.60000610351562 155.0 0.0
endloop
endfacet
facet normal 0.7046714505249513 0.044339000191494025 -0.7081470185470528
outer loop
vertex 167.90145874023438 156.59754943847656 0.4000000059604645
vertex 167.60000610351562 155.0 0.0
vertex 167.50064086914062 156.57919311523438 0.0
endloop
endfacet
facet normal 0.998103029942472 0.06156575037841088 0.0
outer loop
vertex 167.90145874023438 156.59754943847656 0.800000011920929
vertex 168.0 155.0 0.4000000059604645
vertex 167.90145874023438 156.59754943847656 0.4000000059604645
endloop
endfacet
facet normal -0.0 0.0 1.0
outer loop
vertex 167.90145874023438 156.59754943847656 0.800000011920929
vertex 163.6485137939453 154.90017700195312 0.800000011920929
vertex 168.0 155.0 0.800000011920929
endloop
endfacet
facet normal -0.0 0.0 0.9999999999999999
outer loop
vertex 167.60736083984375 158.17088317871094 0.800000011920929
vertex 163.6485137939453 154.90017700195312 0.800000011920929
vertex 167.90145874023438 156.59754943847656 0.800000011920929
endloop
endfacet
facet normal 0.998103029942472 0.06156575037841088 0.0
outer loop
vertex 167.90145874023438 156.59754943847656 0.800000011920929
vertex 168.0 155.0 0.800000011920929
vertex 168.0 155.0 0.4000000059604645
endloop
endfacet
facet normal -0.0 -0.0 -1.0
outer loop
vertex 167.2041473388672 158.13348388671875 0.0
vertex 167.50064086914062 156.57919311523438 0.0
vertex 166.71517944335938 159.63836669921875 0.0
endloop
endfacet
facet normal -0.0 -0.0 -1.0
outer loop
vertex 167.50064086914062 156.57919311523438 0.0
vertex 167.60000610351562 155.0 0.0
vertex 166.71517944335938 159.63836669921875 0.0
endloop
endfacet
facet normal 0.6973595411460761 0.13035503633061266 -0.7047675041286868
outer loop
vertex 167.60736083984375 158.17088317871094 0.4000000059604645
vertex 167.90145874023438 156.59754943847656 0.4000000059604645
vertex 167.50064086914062 156.57919311523438 0.0
endloop
endfacet
facet normal 0.6919137194663885 0.13198813574199794 -0.7098130294926543
outer loop
vertex 167.60736083984375 158.17088317871094 0.4000000059604645
vertex 167.50064086914062 156.57919311523438 0.0
vertex 167.2041473388672 158.13348388671875 0.0
endloop
endfacet
facet normal 0.982974131891452 0.18374399590801907 0.0
outer loop
vertex 167.60736083984375 158.17088317871094 0.800000011920929
vertex 167.90145874023438 156.59754943847656 0.4000000059604645
vertex 167.60736083984375 158.17088317871094 0.4000000059604645
endloop
endfacet
facet normal 0.982974131891452 0.18374399590801907 0.0
outer loop
vertex 167.60736083984375 158.17088317871094 0.800000011920929
vertex 167.90145874023438 156.59754943847656 0.800000011920929
vertex 167.90145874023438 156.59754943847656 0.4000000059604645
endloop
endfacet
facet normal -0.0 0.0 1.0
outer loop
vertex 166.45315551757812 161.15020751953125 0.800000011920929
vertex 163.6485137939453 154.90017700195312 0.800000011920929
vertex 167.1221466064453 159.69613647460938 0.800000011920929
endloop
endfacet
facet normal -0.0 -0.0 -1.0
outer loop
vertex 166.0414581298828 161.07009887695312 0.0
vertex 166.71517944335938 159.63836669921875 0.0
vertex 165.193603515625 162.40609741210938 0.0
endloop
endfacet
facet normal 0.6683914666737147 0.21717436475461538 -0.711398722638149
outer loop
vertex 167.1221466064453 159.69613647460938 0.4000000059604645
vertex 167.2041473388672 158.13348388671875 0.0
vertex 166.71517944335938 159.63836669921875 0.0
endloop
endfacet
facet normal 0.6775679527260543 0.21554820805265962 -0.7031647313709004
outer loop
vertex 167.1221466064453 159.69613647460938 0.4000000059604645
vertex 167.60736083984375 158.17088317871094 0.4000000059604645
vertex 167.2041473388672 158.13348388671875 0.0
endloop
endfacet
facet normal 0.9529426809754145 0.3031505348426575 0.0
outer loop
vertex 167.1221466064453 159.69613647460938 0.800000011920929
vertex 167.60736083984375 158.17088317871094 0.4000000059604645
vertex 167.1221466064453 159.69613647460938 0.4000000059604645
endloop
endfacet
facet normal 0.9529426809754145 0.3031505348426575 0.0
outer loop
vertex 167.1221466064453 159.69613647460938 0.800000011920929
vertex 167.60736083984375 158.17088317871094 0.800000011920929
vertex 167.60736083984375 158.17088317871094 0.4000000059604645
endloop
endfacet
facet normal 0.6473287845961865 0.297823954320845 -0.7016169445401951
outer loop
vertex 166.45315551757812 161.15020751953125 0.4000000059604645
vertex 167.1221466064453 159.69613647460938 0.4000000059604645
vertex 166.71517944335938 159.63836669921875 0.0
endloop
endfacet
facet normal 0.6345342938785864 0.29858885940127067 -0.7128891378983494
outer loop
vertex 166.45315551757812 161.15020751953125 0.4000000059604645
vertex 166.71517944335938 159.63836669921875 0.0
vertex 166.0414581298828 161.07009887695312 0.0
endloop
endfacet
facet normal 0.9084623638649579 0.4179666654661505 0.0
outer loop
vertex 166.45315551757812 161.15020751953125 0.800000011920929
vertex 167.1221466064453 159.69613647460938 0.4000000059604645
vertex 166.45315551757812 161.15020751953125 0.4000000059604645
endloop
endfacet
facet normal 0.9084623638649579 0.4179666654661505 0.0
outer loop
vertex 166.45315551757812 161.15020751953125 0.800000011920929
vertex 167.1221466064453 159.69613647460938 0.800000011920929
vertex 167.1221466064453 159.69613647460938 0.4000000059604645
endloop
endfacet
facet normal 0.0 0.0 -1.0
outer loop
vertex 161.7514190673828 165.63853454589844 0.0
vertex 163.0315399169922 164.70846557617188 0.0
vertex 164.18499755859375 163.6252899169922 0.0
endloop
endfacet
facet normal 0.0 0.0 1.0
outer loop
vertex 163.45803833007812 164.87225341796875 0.800000011920929
vertex 162.1807403564453 165.83682250976562 0.800000011920929
vertex 161.8578643798828 162.74658203125 0.800000011920929
endloop
endfacet
facet normal 0.0 0.0 1.0
outer loop
vertex 165.61056518554688 162.5110626220703 0.800000011920929
vertex 161.8578643798828 162.74658203125 0.800000011920929
vertex 166.45315551757812 161.15020751953125 0.800000011920929
endloop
endfacet
facet normal 0.0 0.0 1.0
outer loop
vertex 164.60711669921875 163.75804138183594 0.800000011920929
vertex 161.8578643798828 162.74658203125 0.800000011920929
vertex 165.61056518554688 162.5110626220703 0.800000011920929
endloop
endfacet
facet normal 0.47722842247188857 0.5081934458410339 -0.7169326707503354
outer loop
vertex 163.45803833007812 164.87225341796875 0.4000000059604645
vertex 164.18499755859375 163.6252899169922 0.0
vertex 163.0315399169922 164.70846557617188 0.0
endloop
endfacet
facet normal 0.6961310960827407 0.7179146864820651 0.0
outer loop
vertex 163.45803833007812 164.87225341796875 0.800000011920929
vertex 164.60711669921875 163.75804138183594 0.4000000059604645
vertex 163.45803833007812 164.87225341796875 0.4000000059604645
endloop
endfacet
facet normal 0.5381566176452353 0.44520284384863834 -0.715668835924637
outer loop
vertex 164.60711669921875 163.75804138183594 0.4000000059604645
vertex 165.193603515625 162.40609741210938 0.0
vertex 164.18499755859375 163.6252899169922 0.0
endloop
endfacet
facet normal 0.4989568469253862 0.5145703881700214 -0.6973230101788052
outer loop
vertex 163.45803833007812 164.87225341796875 0.4000000059604645
vertex 164.60711669921875 163.75804138183594 0.4000000059604645
vertex 164.18499755859375 163.6252899169922 0.0
endloop
endfacet
facet normal 0.0 0.0 1.0
outer loop
vertex 164.60711669921875 163.75804138183594 0.800000011920929
vertex 163.45803833007812 164.87225341796875 0.800000011920929
vertex 161.8578643798828 162.74658203125 0.800000011920929
endloop
endfacet
facet normal 0.6961310960827407 0.7179146864820651 0.0
outer loop
vertex 163.45803833007812 164.87225341796875 0.800000011920929
vertex 164.60711669921875 163.75804138183594 0.800000011920929
vertex 164.60711669921875 163.75804138183594 0.4000000059604645
endloop
endfacet
facet normal 0.35962301564407456 0.622881215435079 -0.6947591511287781
outer loop
vertex 160.7946014404297 166.63711547851562 0.4000000059604645
vertex 162.1807403564453 165.83682250976562 0.4000000059604645
vertex 161.7514190673828 165.63853454589844 0.0
endloop
endfacet
facet normal 0.4090492863537992 0.5630039674727353 -0.7181261824661502
outer loop
vertex 162.1807403564453 165.83682250976562 0.4000000059604645
vertex 163.0315399169922 164.70846557617188 0.0
vertex 161.7514190673828 165.63853454589844 0.0
endloop
endfacet
facet normal 0.432712686655815 0.573005129991325 -0.6960063590303834
outer loop
vertex 162.1807403564453 165.83682250976562 0.4000000059604645
vertex 163.45803833007812 164.87225341796875 0.4000000059604645
vertex 163.0315399169922 164.70846557617188 0.0
endloop
endfacet
facet normal 0.6026340142880241 0.7980176970613505 0.0
outer loop
vertex 162.1807403564453 165.83682250976562 0.800000011920929
vertex 163.45803833007812 164.87225341796875 0.4000000059604645
vertex 162.1807403564453 165.83682250976562 0.4000000059604645
endloop
endfacet
facet normal 0.0 0.0 1.0
outer loop
vertex 162.1807403564453 165.83682250976562 0.800000011920929
vertex 160.7946014404297 166.63711547851562 0.800000011920929
vertex 161.8578643798828 162.74658203125 0.800000011920929
endloop
endfacet
facet normal 0.5000024799399615 0.8660239719856999 0.0
outer loop
vertex 160.7946014404297 166.63711547851562 0.800000011920929
vertex 162.1807403564453 165.83682250976562 0.800000011920929
vertex 162.1807403564453 165.83682250976562 0.4000000059604645
endloop
endfacet
facet normal 0.6026340142880241 0.7980176970613505 0.0
outer loop
vertex 162.1807403564453 165.83682250976562 0.800000011920929
vertex 163.45803833007812 164.87225341796875 0.800000011920929
vertex 163.45803833007812 164.87225341796875 0.4000000059604645
endloop
endfacet
facet normal -0.0 -0.0 -1.0
outer loop
vertex 165.193603515625 162.40609741210938 0.0
vertex 166.71517944335938 159.63836669921875 0.0
vertex 164.18499755859375 163.6252899169922 0.0
endloop
endfacet
facet normal 0.5573662280367568 0.44851469479642203 -0.6986969703639412
outer loop
vertex 164.60711669921875 163.75804138183594 0.4000000059604645
vertex 165.61056518554688 162.5110626220703 0.4000000059604645
vertex 165.193603515625 162.40609741210938 0.0
endloop
endfacet
facet normal 0.5908709459543163 0.3749799455428707 -0.7143259519769088
outer loop
vertex 165.61056518554688 162.5110626220703 0.4000000059604645
vertex 166.0414581298828 161.07009887695312 0.0
vertex 165.193603515625 162.40609741210938 0.0
endloop
endfacet
facet normal 0.6070834127197046 0.37588323205003177 -0.7001153661106281
outer loop
vertex 165.61056518554688 162.5110626220703 0.4000000059604645
vertex 166.45315551757812 161.15020751953125 0.4000000059604645
vertex 166.0414581298828 161.07009887695312 0.0
endloop
endfacet
facet normal 0.8502214627949582 0.5264251743627022 0.0
outer loop
vertex 165.61056518554688 162.5110626220703 0.800000011920929
vertex 166.45315551757812 161.15020751953125 0.4000000059604645
vertex 165.61056518554688 162.5110626220703 0.4000000059604645
endloop
endfacet
facet normal 0.7790780076938723 0.626926995692279 0.0
outer loop
vertex 164.60711669921875 163.75804138183594 0.800000011920929
vertex 165.61056518554688 162.5110626220703 0.800000011920929
vertex 165.61056518554688 162.5110626220703 0.4000000059604645
endloop
endfacet
facet normal 0.8502214627949582 0.5264251743627022 0.0
outer loop
vertex 165.61056518554688 162.5110626220703 0.800000011920929
vertex 166.45315551757812 161.15020751953125 0.800000011920929
vertex 166.45315551757812 161.15020751953125 0.4000000059604645
endloop
endfacet
facet normal 0.7790780076938723 0.626926995692279 0.0
outer loop
vertex 164.60711669921875 163.75804138183594 0.800000011920929
vertex 165.61056518554688 162.5110626220703 0.4000000059604645
vertex 164.60711669921875 163.75804138183594 0.4000000059604645
endloop
endfacet
facet normal 0.8356218346986322 -0.5493051514184917 0.0
outer loop
vertex 161.8578643798828 162.74658203125 8.399999618530273
vertex 151.6732635498047 147.25341796875 8.399999618530273
vertex 161.8578643798828 162.74658203125 0.800000011920929
endloop
endfacet
facet normal 0.0 -0.0 1.0
outer loop
vertex 151.45753479003906 147.65342712402344 8.800000190734863
vertex 161.11624145507812 162.34657287597656 8.800000190734863
vertex 158.54266357421875 162.34657287597656 8.800000190734863
endloop
endfacet
facet normal 0.5908822509105063 -0.38842290953772524 0.707096746495967
outer loop
vertex 151.6732635498047 147.25341796875 8.399999618530273
vertex 161.8578643798828 162.74658203125 8.399999618530273
vertex 161.11624145507812 162.34657287597656 8.800000190734863
endloop
endfacet
facet normal 0.0 1.0 0.0
outer loop
vertex 158.32691955566406 162.74658203125 0.800000011920929
vertex 158.32691955566406 162.74658203125 8.399999618530273
vertex 161.8578643798828 162.74658203125 8.399999618530273
endloop
endfacet
facet normal 0.0 0.7070991948053652 0.7071143674863384
outer loop
vertex 161.8578643798828 162.74658203125 8.399999618530273
vertex 158.32691955566406 162.74658203125 8.399999618530273
vertex 158.54266357421875 162.34657287597656 8.800000190734863
endloop
endfacet
facet normal -0.0 0.7070991948053652 0.7071143674863383
outer loop
vertex 161.8578643798828 162.74658203125 8.399999618530273
vertex 158.54266357421875 162.34657287597656 8.800000190734863
vertex 161.11624145507812 162.34657287597656 8.800000190734863
endloop
endfacet

endsolid
